# This file uses centimeters as units for non-parametric coordinates.

mtllib Grapas2.mtl
g default
v 0.683014 1.042470 -0.229571
v 1.211151 0.514910 -0.209949
v 0.808758 1.168313 -0.230559
v 1.336895 0.640757 -0.210936
v 0.809050 1.167864 -0.250505
v 1.337186 0.640308 -0.230883
v 0.683307 1.042021 -0.249518
v 1.211443 0.514461 -0.229895
v 1.179932 0.532898 -0.209763
v 1.318883 0.671960 -0.210855
v 1.319205 0.671464 -0.232896
v 1.180256 0.532402 -0.231805
v 0.695009 1.017291 -0.227780
v 0.833959 1.156352 -0.228872
v 0.834283 1.155856 -0.250914
v 0.695333 1.016795 -0.249822
v 0.676382 1.052645 0.222436
v 0.688378 1.027465 0.224227
v 0.827328 1.166527 0.223136
v 0.802126 1.178488 0.221448
v 1.173300 0.543073 0.242245
v 1.312251 0.682135 0.241153
v 1.204519 0.525085 0.242060
v 1.330263 0.650931 0.241072
v -0.582619 -0.389094 -0.209603
v -1.080055 0.167180 -0.236912
v -0.715304 -0.507452 -0.203613
v -1.212740 0.048824 -0.230922
v -0.715319 -0.508442 -0.223542
v -1.212755 0.047832 -0.250851
v -0.582634 -0.390088 -0.229533
v -1.080070 0.166190 -0.256841
v -1.049916 0.147536 -0.234908
v -1.196536 0.016751 -0.228289
v -1.196553 0.015655 -0.250311
v -1.049932 0.146440 -0.256930
v -0.593182 -0.363222 -0.209834
v -0.739802 -0.494010 -0.203215
v -0.739819 -0.495104 -0.225237
v -0.593199 -0.364320 -0.231856
v -0.582278 -0.366619 0.242012
v -0.592841 -0.340748 0.241775
v -0.739461 -0.471536 0.248394
v -0.714963 -0.484977 0.248003
v -1.049575 0.170011 0.216701
v -1.196195 0.039225 0.223320
v -1.079714 0.189656 0.214704
v -1.212399 0.071300 0.220694
v 0.143695 0.739457 -0.219840
v 0.313758 0.012333 -0.219478
v 0.316919 0.779970 -0.221023
v 0.486983 0.052847 -0.220660
v 0.316792 0.779931 -0.240976
v 0.486855 0.052807 -0.240614
v 0.143568 0.739417 -0.239794
v 0.313631 0.012293 -0.239431
v 0.296747 0.044077 -0.218385
v 0.488164 0.088846 -0.219691
v 0.488023 0.088802 -0.241740
v 0.296607 0.044033 -0.240434
v 0.140599 0.711705 -0.218718
v 0.332016 0.756474 -0.220024
v 0.331876 0.756430 -0.242074
v 0.140459 0.711661 -0.240767
v 0.146572 0.740355 0.232324
v 0.143476 0.712603 0.233440
v 0.334893 0.757372 0.232133
v 0.319796 0.780869 0.231142
v 0.299624 0.044975 0.233773
v 0.491040 0.089744 0.232466
v 0.316636 0.013231 0.232687
v 0.489859 0.053745 0.231504
vt 0.375000 0.000000
vt 0.397500 0.000000
vt 0.397500 0.250000
vt 0.375000 0.250000
vt 0.375000 0.250000
vt 0.397500 0.250000
vt 0.397500 0.500000
vt 0.375000 0.500000
vt 0.397500 0.750000
vt 0.375000 0.750000
vt 0.397500 1.000000
vt 0.375000 1.000000
vt 0.625000 0.000000
vt 0.875000 0.000000
vt 0.875000 0.250000
vt 0.625000 0.250000
vt 0.125000 0.000000
vt 0.375000 0.000000
vt 0.125000 0.250000
vt 0.600000 0.250000
vt 0.600000 0.000000
vt 0.625000 0.000000
vt 0.625000 0.250000
vt 0.600000 0.500000
vt 0.600000 0.250000
vt 0.625000 0.500000
vt 0.600000 0.750000
vt 0.625000 0.750000
vt 0.600000 1.000000
vt 0.625000 1.000000
vt 0.397500 0.000000
vt 0.600000 0.000000
vt 0.375000 0.000000
vt 0.397500 0.000000
vt 0.397500 0.250000
vt 0.375000 0.250000
vt 0.375000 0.250000
vt 0.397500 0.250000
vt 0.397500 0.500000
vt 0.375000 0.500000
vt 0.397500 0.750000
vt 0.375000 0.750000
vt 0.397500 1.000000
vt 0.375000 1.000000
vt 0.625000 0.000000
vt 0.875000 0.000000
vt 0.875000 0.250000
vt 0.625000 0.250000
vt 0.125000 0.000000
vt 0.375000 0.000000
vt 0.125000 0.250000
vt 0.600000 0.250000
vt 0.600000 0.000000
vt 0.625000 0.000000
vt 0.625000 0.250000
vt 0.600000 0.500000
vt 0.600000 0.250000
vt 0.625000 0.500000
vt 0.600000 0.750000
vt 0.625000 0.750000
vt 0.600000 1.000000
vt 0.625000 1.000000
vt 0.397500 0.000000
vt 0.600000 0.000000
vt 0.375000 0.000000
vt 0.397500 0.000000
vt 0.397500 0.250000
vt 0.375000 0.250000
vt 0.375000 0.250000
vt 0.397500 0.250000
vt 0.397500 0.500000
vt 0.375000 0.500000
vt 0.397500 0.750000
vt 0.375000 0.750000
vt 0.397500 1.000000
vt 0.375000 1.000000
vt 0.625000 0.000000
vt 0.875000 0.000000
vt 0.875000 0.250000
vt 0.625000 0.250000
vt 0.125000 0.000000
vt 0.375000 0.000000
vt 0.125000 0.250000
vt 0.600000 0.250000
vt 0.600000 0.000000
vt 0.625000 0.000000
vt 0.625000 0.250000
vt 0.600000 0.500000
vt 0.600000 0.250000
vt 0.625000 0.500000
vt 0.600000 0.750000
vt 0.625000 0.750000
vt 0.600000 1.000000
vt 0.625000 1.000000
vt 0.397500 0.000000
vt 0.600000 0.000000
vn -0.042794 0.050593 0.997802
vn -0.042794 0.050593 0.997802
vn -0.042794 0.050593 0.997802
vn -0.042794 0.050593 0.997802
vn 0.429479 0.902968 -0.014022
vn 0.698108 0.715968 -0.005868
vn 0.698108 0.715968 -0.005868
vn 0.429479 0.902968 -0.014022
vn -0.013477 0.005619 -0.999893
vn 0.013882 -0.021717 -0.999668
vn 0.013882 -0.021717 -0.999668
vn -0.013477 0.005619 -0.999893
vn -0.902680 -0.430297 -0.003569
vn -0.715410 -0.698686 0.005200
vn -0.715410 -0.698686 0.005200
vn -0.902680 -0.430297 -0.003569
vn 0.707257 -0.706469 0.026248
vn 0.707257 -0.706469 0.026248
vn 0.707257 -0.706469 0.026248
vn 0.707257 -0.706469 0.026248
vn -0.707244 0.706481 -0.026265
vn -0.707244 0.706481 -0.026265
vn -0.707244 0.706481 -0.026265
vn -0.707244 0.706481 -0.026265
vn 0.006634 0.001221 0.999977
vn 0.006634 0.001221 0.999977
vn 0.006634 0.001221 0.999977
vn 0.006634 0.001221 0.999977
vn 0.715359 0.698738 -0.005229
vn 0.715359 0.698737 -0.005229
vn 0.866068 0.499925 0.001423
vn 0.866068 0.499925 0.001423
vn 0.015491 -0.023324 -0.999608
vn 0.015491 -0.023324 -0.999608
vn 0.035962 -0.043768 -0.998394
vn 0.035962 -0.043768 -0.998394
vn -0.698160 -0.715918 0.005842
vn -0.698159 -0.715919 0.005842
vn -0.499158 -0.866426 0.012170
vn -0.499158 -0.866426 0.012170
vn -0.014665 0.022502 0.999639
vn -0.014665 0.022502 0.999639
vn -0.014665 0.022502 0.999639
vn -0.014665 0.022502 0.999639
vn -0.902682 -0.430294 -0.003558
vn -0.902682 -0.430294 -0.003558
vn -0.902682 -0.430294 -0.003558
vn -0.902682 -0.430294 -0.003558
vn 0.707249 -0.706476 0.026279
vn 0.707249 -0.706476 0.026279
vn 0.707249 -0.706476 0.026279
vn 0.707249 -0.706476 0.026279
vn 0.429490 0.902963 -0.014024
vn 0.429490 0.902963 -0.014024
vn 0.429490 0.902963 -0.014024
vn 0.429490 0.902963 -0.014024
vn -0.707244 0.706481 -0.026279
vn -0.707244 0.706481 -0.026279
vn -0.707244 0.706481 -0.026279
vn -0.707244 0.706481 -0.026279
vn -0.707247 0.706478 -0.026279
vn -0.707247 0.706478 -0.026279
vn -0.707247 0.706478 -0.026279
vn -0.707247 0.706478 -0.026279
vn -0.499146 -0.866433 0.012179
vn -0.499146 -0.866433 0.012179
vn -0.499146 -0.866433 0.012179
vn -0.499146 -0.866433 0.012179
vn 0.707256 -0.706469 0.026280
vn 0.707256 -0.706469 0.026280
vn 0.707256 -0.706469 0.026280
vn 0.707256 -0.706469 0.026280
vn 0.866064 0.499931 0.001454
vn 0.866064 0.499931 0.001454
vn 0.866064 0.499931 0.001454
vn 0.866064 0.499931 0.001454
vn 0.027075 0.020231 0.999429
vn 0.027075 0.020231 0.999429
vn 0.027075 0.020231 0.999429
vn 0.027075 0.020231 0.999429
vn -0.480009 -0.876165 0.043885
vn -0.737625 -0.674349 0.034086
vn -0.737627 -0.674348 0.034085
vn -0.480009 -0.876165 0.043885
vn 0.025744 -0.079302 -0.996518
vn -0.000016 -0.050531 -0.998723
vn -0.000016 -0.050531 -0.998723
vn 0.025744 -0.079302 -0.996518
vn 0.925686 0.377790 -0.019529
vn 0.753921 0.656124 -0.033243
vn 0.753919 0.656126 -0.033243
vn 0.925686 0.377790 -0.019529
vn -0.666139 0.744932 -0.036539
vn -0.666139 0.744932 -0.036539
vn -0.666139 0.744932 -0.036539
vn -0.666139 0.744932 -0.036539
vn 0.666135 -0.744934 0.036583
vn 0.666135 -0.744934 0.036583
vn 0.666135 -0.744934 0.036583
vn 0.666135 -0.744934 0.036583
vn -0.019173 0.071965 0.997223
vn -0.019173 0.071965 0.997223
vn -0.019173 0.071965 0.997223
vn -0.019173 0.071965 0.997223
vn -0.753873 -0.656181 0.033197
vn -0.753873 -0.656181 0.033197
vn -0.893077 -0.449314 0.023044
vn -0.893077 -0.449314 0.023044
vn -0.001531 -0.048837 -0.998806
vn -0.001531 -0.048837 -0.998806
vn -0.020819 -0.027243 -0.999412
vn -0.020819 -0.027243 -0.999412
vn 0.737674 0.674294 -0.034132
vn 0.737674 0.674294 -0.034132
vn 0.547514 0.835743 -0.041967
vn 0.547514 0.835743 -0.041967
vn 0.000754 0.049705 0.998764
vn 0.000754 0.049705 0.998764
vn 0.000754 0.049705 0.998764
vn 0.000754 0.049705 0.998764
vn 0.925693 0.377774 -0.019499
vn 0.925693 0.377774 -0.019499
vn 0.925693 0.377774 -0.019499
vn 0.925693 0.377774 -0.019499
vn -0.666140 0.744930 -0.036568
vn -0.666140 0.744930 -0.036568
vn -0.666140 0.744930 -0.036568
vn -0.666140 0.744930 -0.036568
vn -0.480014 -0.876158 0.043964
vn -0.480014 -0.876158 0.043964
vn -0.480014 -0.876158 0.043964
vn -0.480014 -0.876158 0.043964
vn 0.666142 -0.744928 0.036569
vn 0.666142 -0.744928 0.036569
vn 0.666142 -0.744928 0.036569
vn 0.666142 -0.744928 0.036569
vn 0.666135 -0.744934 0.036569
vn 0.666135 -0.744934 0.036569
vn 0.666135 -0.744934 0.036569
vn 0.666135 -0.744934 0.036569
vn 0.547515 0.835741 -0.042006
vn 0.547515 0.835741 -0.042006
vn 0.547515 0.835741 -0.042006
vn 0.547515 0.835741 -0.042006
vn -0.666136 0.744933 -0.036571
vn -0.666136 0.744933 -0.036571
vn -0.666136 0.744933 -0.036571
vn -0.666136 0.744933 -0.036571
vn -0.893086 -0.449297 0.023034
vn -0.893086 -0.449297 0.023034
vn -0.893086 -0.449297 0.023034
vn -0.893086 -0.449297 0.023034
vn -0.002645 0.040472 0.999177
vn -0.002645 0.040472 0.999177
vn -0.002645 0.040472 0.999177
vn -0.002645 0.040472 0.999177
vn 0.841412 0.540355 -0.006436
vn 0.970843 0.239623 -0.006649
vn 0.970843 0.239623 -0.006649
vn 0.841412 0.540355 -0.006436
vn -0.015421 0.036759 -0.999205
vn -0.006616 -0.000908 -0.999978
vn -0.006616 -0.000908 -0.999978
vn -0.015421 0.036759 -0.999205
vn -0.993789 0.111114 0.006101
vn -0.976414 -0.215804 0.006636
vn -0.976414 -0.215804 0.006636
vn -0.993789 0.111114 0.006101
vn 0.227739 -0.973722 0.000486
vn 0.227739 -0.973722 0.000486
vn 0.227739 -0.973722 0.000486
vn 0.227739 -0.973722 0.000486
vn -0.227737 0.973722 -0.000483
vn -0.227737 0.973722 -0.000483
vn -0.227737 0.973723 -0.000483
vn -0.227737 0.973722 -0.000483
vn 0.013169 -0.027134 0.999545
vn 0.013169 -0.027134 0.999545
vn 0.013169 -0.027134 0.999545
vn 0.013169 -0.027134 0.999545
vn 0.976399 0.215873 -0.006637
vn 0.976399 0.215873 -0.006637
vn 0.999448 -0.032627 -0.006304
vn 0.999448 -0.032627 -0.006304
vn -0.006098 -0.003122 -0.999977
vn -0.006098 -0.003122 -0.999977
vn 0.000496 -0.031294 -0.999510
vn 0.000496 -0.031294 -0.999510
vn -0.970860 -0.239555 0.006648
vn -0.970860 -0.239555 0.006648
vn -0.881301 -0.472510 0.006544
vn -0.881301 -0.472510 0.006544
vn 0.006361 0.001986 0.999978
vn 0.006361 0.001986 0.999978
vn 0.006361 0.001986 0.999978
vn 0.006361 0.001986 0.999978
vn -0.993789 0.111116 0.006103
vn -0.993789 0.111116 0.006103
vn -0.993789 0.111116 0.006103
vn -0.993789 0.111116 0.006103
vn 0.227743 -0.973721 0.000485
vn 0.227743 -0.973721 0.000485
vn 0.227743 -0.973721 0.000485
vn 0.227743 -0.973721 0.000485
vn 0.841418 0.540347 -0.006426
vn 0.841418 0.540347 -0.006426
vn 0.841418 0.540347 -0.006426
vn 0.841418 0.540347 -0.006426
vn -0.227737 0.973722 -0.000485
vn -0.227737 0.973722 -0.000485
vn -0.227737 0.973723 -0.000485
vn -0.227737 0.973722 -0.000485
vn -0.227738 0.973723 -0.000486
vn -0.227738 0.973722 -0.000486
vn -0.227738 0.973723 -0.000486
vn -0.227738 0.973722 -0.000486
vn -0.881300 -0.472512 0.006546
vn -0.881300 -0.472512 0.006546
vn -0.881300 -0.472512 0.006546
vn -0.881300 -0.472512 0.006546
vn 0.227739 -0.973722 0.000486
vn 0.227739 -0.973722 0.000486
vn 0.227739 -0.973722 0.000486
vn 0.227739 -0.973722 0.000486
vn 0.999448 -0.032618 -0.006294
vn 0.999448 -0.032618 -0.006294
vn 0.999448 -0.032618 -0.006294
vn 0.999448 -0.032618 -0.006294
s off
g polySurface1
usemtl initialShadingGroup
f 17/1/1 18/2/2 19/3/3 20/4/4
s 1
f 3/5/5 14/6/6 15/7/7 5/8/8
s 2
f 5/8/9 15/7/10 16/9/11 7/10/12
s 3
f 7/10/13 16/9/14 13/11/15 1/12/16
s off
f 2/13/17 8/14/18 6/15/19 4/16/20
f 7/17/21 1/18/22 3/5/23 5/19/24
f 22/20/25 21/21/26 23/22/27 24/23/28
s 1
f 11/24/29 10/25/30 4/16/31 6/26/32
s 2
f 12/27/33 11/24/34 6/26/35 8/28/36
s 3
f 9/29/37 12/27/38 8/28/39 2/30/40
s off
f 14/6/41 13/31/42 9/32/43 10/25/44
s 1
f 15/7/7 14/6/6 10/25/30 11/24/29
s 2
f 16/9/11 15/7/10 11/24/34 12/27/33
s 3
f 13/11/15 16/9/14 12/27/38 9/29/37
s off
f 1/18/45 13/31/46 18/2/47 17/1/48
f 13/31/49 14/6/50 19/3/51 18/2/52
f 14/6/53 3/5/54 20/4/55 19/3/56
f 3/5/57 1/18/58 17/1/59 20/4/60
f 10/25/61 9/32/62 21/21/63 22/20/64
f 9/32/65 2/13/66 23/22/67 21/21/68
f 2/13/69 4/16/70 24/23/71 23/22/72
f 4/16/73 10/25/74 22/20/75 24/23/76
f 41/33/77 42/34/78 43/35/79 44/36/80
s 4
f 27/37/81 38/38/82 39/39/83 29/40/84
s 5
f 29/40/85 39/39/86 40/41/87 31/42/88
s 6
f 31/42/89 40/41/90 37/43/91 25/44/92
s off
f 26/45/93 32/46/94 30/47/95 28/48/96
f 31/49/97 25/50/98 27/37/99 29/51/100
f 46/52/101 45/53/102 47/54/103 48/55/104
s 4
f 35/56/105 34/57/106 28/48/107 30/58/108
s 5
f 36/59/109 35/56/110 30/58/111 32/60/112
s 6
f 33/61/113 36/59/114 32/60/115 26/62/116
s off
f 38/38/117 37/63/118 33/64/119 34/57/120
s 4
f 39/39/83 38/38/82 34/57/106 35/56/105
s 5
f 40/41/87 39/39/86 35/56/110 36/59/109
s 6
f 37/43/91 40/41/90 36/59/114 33/61/113
s off
f 25/50/121 37/63/122 42/34/123 41/33/124
f 37/63/125 38/38/126 43/35/127 42/34/128
f 38/38/129 27/37/130 44/36/131 43/35/132
f 27/37/133 25/50/134 41/33/135 44/36/136
f 34/57/137 33/64/138 45/53/139 46/52/140
f 33/64/141 26/45/142 47/54/143 45/53/144
f 26/45/145 28/48/146 48/55/147 47/54/148
f 28/48/149 34/57/150 46/52/151 48/55/152
f 65/65/153 66/66/154 67/67/155 68/68/156
s 7
f 51/69/157 62/70/158 63/71/159 53/72/160
s 8
f 53/72/161 63/71/162 64/73/163 55/74/164
s 9
f 55/74/165 64/73/166 61/75/167 49/76/168
s off
f 50/77/169 56/78/170 54/79/171 52/80/172
f 55/81/173 49/82/174 51/69/175 53/83/176
f 70/84/177 69/85/178 71/86/179 72/87/180
s 7
f 59/88/181 58/89/182 52/80/183 54/90/184
s 8
f 60/91/185 59/88/186 54/90/187 56/92/188
s 9
f 57/93/189 60/91/190 56/92/191 50/94/192
s off
f 62/70/193 61/95/194 57/96/195 58/89/196
s 7
f 63/71/159 62/70/158 58/89/182 59/88/181
s 8
f 64/73/163 63/71/162 59/88/186 60/91/185
s 9
f 61/75/167 64/73/166 60/91/190 57/93/189
s off
f 49/82/197 61/95/198 66/66/199 65/65/200
f 61/95/201 62/70/202 67/67/203 66/66/204
f 62/70/205 51/69/206 68/68/207 67/67/208
f 51/69/209 49/82/210 65/65/211 68/68/212
f 58/89/213 57/96/214 69/85/215 70/84/216
f 57/96/217 50/77/218 71/86/219 69/85/220
f 50/77/221 52/80/222 72/87/223 71/86/224
f 52/80/225 58/89/226 70/84/227 72/87/228
