# This file uses centimeters as units for non-parametric coordinates.

mtllib EspejoRoto.mtl
g default
v -0.351446 1.278163 0.227663
v 0.725545 1.182461 0.227663
v -0.351446 1.278163 -0.227663
v 0.725545 1.182461 -0.227663
v -0.156507 1.037031 0.227663
v -0.156507 1.037031 -0.227663
v 0.557458 0.978755 0.227663
v 0.557458 0.978755 -0.227663
v 0.384164 1.457606 0.227663
v 0.384164 1.457606 -0.227663
v 0.034958 1.095296 0.227663
v 0.034958 1.095296 -0.227663
v 0.213370 1.545854 0.227663
v 0.213370 1.545854 -0.227663
v -0.384906 1.616230 0.227663
v -0.384906 1.616230 -0.227663
v -0.725544 1.216435 0.227663
v -0.725544 1.216435 -0.227663
v -0.351446 0.031374 0.227663
v 0.725545 0.032764 0.227663
v -0.351446 0.008887 -0.227663
v 0.725545 0.008887 -0.227663
v -0.156507 0.031626 0.227663
v -0.156507 0.008887 -0.227663
v 0.523348 0.113646 0.227663
v 0.557458 0.008887 -0.227663
v 0.384164 0.032323 0.227663
v 0.384164 0.008887 -0.227663
v 0.034958 0.031873 0.227663
v 0.034958 0.008887 -0.227663
v 0.213370 0.032103 0.227663
v 0.213370 0.008887 -0.227663
v -0.502813 0.094864 0.227663
v -0.538119 0.008887 -0.227663
v -0.725545 0.030892 0.227663
v -0.725545 0.008887 -0.227663
v -0.567766 1.401614 0.227663
v -0.567766 1.401614 -0.227663
v -0.533656 0.112194 0.227663
v -0.567766 0.008887 -0.227663
v -0.156507 0.031626 0.410806
v -0.351446 0.031374 0.410806
v 0.523348 0.113646 0.410806
v 0.557458 0.978755 0.410806
v 0.725545 0.032764 0.410806
v 0.725545 1.182461 0.410806
v -0.502813 0.094864 0.410806
v -0.533656 0.112194 0.410806
v 0.034958 0.031873 0.410806
v 0.384164 0.032323 0.410806
v 0.213370 0.032103 0.410806
v -0.725545 0.030892 0.410806
v -0.567766 1.401614 0.410806
v -0.725544 1.216435 0.410806
v 0.725545 0.008886 0.356678
v -0.725545 0.008886 0.356678
v -0.156507 0.008886 0.751293
v -0.252257 0.008886 0.500232
v 0.725545 0.008886 0.590915
v 0.523348 0.008886 0.701102
v -0.448688 0.008886 0.639344
v -0.533656 0.008886 0.590915
v 0.034958 0.008886 0.656375
v 0.384164 0.008886 0.590915
v 0.213370 0.008886 0.521070
v -0.725545 0.008886 0.590915
vt 0.059206 0.867219
vt 0.610348 0.744064
vt 0.638778 0.093726
vt 0.938602 0.113718
vt 0.111622 0.798820
vt 0.694418 0.159529
vt 0.535214 0.689789
vt 0.893148 0.171347
vt 0.264870 0.911758
vt 0.842065 0.039362
vt 0.165236 0.813624
vt 0.747259 0.142167
vt 0.218057 0.937509
vt 0.794070 0.015889
vt 0.052352 0.961383
vt 0.627410 0.000000
vt 0.458761 0.466175
vt 0.435672 0.595969
vt 0.153937 0.283836
vt 0.385665 0.057646
vt 0.646554 0.446390
vt 0.497579 0.117068
vt 0.193889 0.247686
vt 0.700717 0.445195
vt 0.339729 0.119129
vt 0.899089 0.440821
vt 0.305678 0.148099
vt 0.850940 0.441883
vt 0.233410 0.212288
vt 0.753915 0.444023
vt 0.270309 0.179325
vt 0.803486 0.442929
vt 0.121382 0.315020
vt 0.594687 0.447533
vt 0.047575 0.356365
vt 0.542611 0.448682
vt 0.537898 0.423637
vt 0.577918 0.060751
vt 0.272485 0.180839
vt 0.586450 0.447715
vt 0.159718 0.210029
vt 0.118973 0.246628
vt 0.585280 0.671498
vt 0.306650 0.080597
vt 0.342027 0.031456
vt 0.594784 0.709089
vt 0.085853 0.278693
vt 0.079186 0.285985
vt 0.199491 0.174430
vt 0.272208 0.109445
vt 0.236603 0.141333
vt 0.491163 0.413412
vt 0.449600 0.424394
vt 0.026402 0.310093
vt 0.358336 0.033506
vt 0.027099 0.326307
vt 0.122869 0.208975
vt 0.096796 0.139031
vt 0.302541 0.000009
vt 0.242981 0.023261
vt 0.057265 0.215219
vt 0.045417 0.239350
vt 0.153906 0.123381
vt 0.237707 0.072307
vt 0.215747 0.118134
vt 0.000000 0.267164
vt 0.000162 0.544606
vt 0.000000 0.903079
vt 0.008606 0.539568
vt 0.050200 0.520836
vt 0.207123 0.516959
vt 0.254574 0.515786
vt 0.157555 0.518184
vt 0.293830 0.537374
vt 0.104360 0.519498
vt 0.309555 0.777472
vt 0.392606 0.872419
vt 0.487010 0.871152
vt 0.763455 0.867444
vt 0.816878 0.866727
vt 0.628791 0.869250
vt 0.573176 0.869996
vt 0.238695 0.224181
vt 0.181238 0.263691
vt 0.148116 0.316218
vt 0.114495 0.321951
vt 0.734489 0.478667
vt 0.803581 0.501864
vt 0.847027 0.542046
vt 0.683185 0.445575
vt 0.094645 0.473964
vt 0.944581 0.634146
vt 0.315952 1.000000
vt 0.535214 0.113168
vt 0.083474 0.435836
vt 0.394303 0.998949
vt 0.488708 0.997682
vt 0.765153 0.993974
vt 0.818576 0.993257
vt 0.630489 0.995780
vt 0.562935 0.860469
vt 0.651587 0.868926
vt 0.574874 0.996526
vt 0.945792 0.439792
vt 0.521859 0.590569
vt 0.314254 0.873470
vt 0.958391 0.864828
vt 0.960089 0.991358
vn 0.777659 0.628686 0.000000
vn 0.427768 0.903889 0.000000
vn 0.427768 0.903889 0.000000
vn 0.777659 0.628686 0.000000
vn 0.000000 0.000000 -1.000000
vn -0.000000 0.000000 -1.000000
vn -0.000000 0.000000 -1.000000
vn 0.000000 0.000000 -1.000000
vn -0.000000 0.000000 1.000000
vn -0.000000 0.000000 1.000000
vn 0.000000 0.000000 1.000000
vn 0.000000 0.000000 1.000000
vn -0.808869 0.587988 0.000000
vn -0.808869 0.587988 0.000000
vn 0.000000 0.000000 1.000000
vn 0.000000 0.000000 1.000000
vn 0.000000 0.000000 1.000000
vn 0.000000 0.000000 1.000000
vn 0.627528 0.778594 0.000000
vn 0.627528 0.778594 0.000000
vn -0.771318 0.636450 0.000000
vn -0.771318 0.636450 0.000000
vn -0.000000 0.000000 1.000000
vn -0.000000 0.000000 1.000000
vn -0.000000 0.000000 1.000000
vn -0.000000 0.000000 1.000000
vn 0.854936 0.518734 0.000000
vn 0.854936 0.518734 0.000000
vn 0.000000 0.000000 1.000000
vn -0.000000 0.000000 1.000000
vn -0.720007 0.693967 0.000000
vn -0.720007 0.693967 0.000000
vn 0.995138 0.098493 0.000000
vn 0.995138 0.098493 0.000000
vn 0.995138 0.098493 0.000000
vn 0.995138 0.098493 0.000000
vn 0.000000 0.000000 -1.000000
vn 0.000000 0.000000 -1.000000
vn 0.000000 0.000000 -1.000000
vn 0.000000 0.000000 -1.000000
vn -0.761176 0.648545 0.000000
vn -0.761176 0.648545 0.000000
vn -0.761176 0.648545 0.000000
vn -0.761176 0.648545 0.000000
vn -0.000000 0.000000 -1.000000
vn -0.000000 0.000000 -1.000000
vn -0.000000 0.000000 -1.000000
vn -0.000000 0.000000 -1.000000
vn 0.000000 0.000000 1.000000
vn 0.000000 0.000000 1.000000
vn 1.000000 0.000000 0.000000
vn 1.000000 0.000000 0.000000
vn 1.000000 0.000000 0.000000
vn 1.000000 0.000000 0.000000
vn -1.000000 0.000001 -0.000000
vn -1.000000 0.000001 -0.000000
vn -1.000000 0.000001 -0.000000
vn -1.000000 0.000001 -0.000000
vn -0.000000 0.000000 -1.000000
vn -0.000000 0.000000 -1.000000
vn 0.000000 0.000000 -1.000000
vn 0.000000 0.000000 -1.000000
vn 0.000000 0.000000 -1.000000
vn 0.000000 0.000000 -1.000000
vn 0.000000 0.000000 -1.000000
vn 0.000000 0.000000 -1.000000
vn 0.000000 0.000000 -1.000000
vn 0.000000 0.000000 -1.000000
vn 0.000000 0.000000 1.000000
vn 0.000000 0.000000 1.000000
vn 0.000000 0.000000 1.000000
vn 0.000000 0.000000 1.000000
vn -0.000000 0.000000 1.000000
vn -0.000000 0.000000 1.000000
vn -0.000000 0.000000 1.000000
vn -0.000000 0.000000 1.000000
vn -0.761176 0.648545 0.000000
vn -0.761176 0.648545 0.000000
vn 0.000000 0.000000 -1.000000
vn 0.000000 0.000000 -1.000000
vn -0.000000 0.000000 1.000000
vn -0.000000 0.000000 1.000000
vn -0.000000 0.000000 1.000000
vn -0.000000 0.000000 1.000000
vn -0.001290 0.999999 0.000000
vn -0.001290 0.999999 0.000000
vn -0.001290 0.999999 0.000000
vn -0.001290 0.999999 0.000000
vn -0.999224 0.039397 0.000000
vn -0.999224 0.039397 0.000000
vn -0.999224 0.039397 0.000000
vn -0.999224 0.039397 0.000000
vn 1.000000 0.000000 0.000000
vn 1.000000 0.000000 0.000000
vn 1.000000 0.000000 0.000000
vn 1.000000 0.000000 0.000000
vn -0.771318 0.636450 0.000000
vn -0.771318 0.636450 0.000000
vn -0.771318 0.636450 0.000000
vn -0.771318 0.636450 0.000000
vn 0.386792 0.922167 0.000000
vn 0.386792 0.922167 0.000000
vn 0.386792 0.922167 0.000000
vn 0.386792 0.922167 0.000000
vn 0.489863 0.871799 0.000000
vn 0.489863 0.871799 0.000000
vn 0.489863 0.871799 0.000000
vn 0.489863 0.871799 0.000000
vn -0.001290 0.999999 0.000000
vn -0.001290 0.999999 0.000000
vn -0.001290 0.999999 0.000000
vn -0.001290 0.999999 0.000000
vn -0.504479 0.863424 0.000000
vn -0.504479 0.863424 0.000000
vn -0.504479 0.863424 0.000000
vn -0.504479 0.863424 0.000000
vn -0.001290 0.999999 0.000000
vn -0.001290 0.999999 0.000000
vn -0.001290 0.999999 0.000000
vn -0.001290 0.999999 0.000000
vn -0.001290 0.999999 0.000000
vn -0.001290 0.999999 0.000000
vn -0.001290 0.999999 0.000000
vn -0.001290 0.999999 0.000000
vn 0.999650 0.026444 0.000000
vn 0.999650 0.026444 0.000000
vn 0.999650 0.026444 0.000000
vn 0.999650 0.026444 0.000000
vn -0.761176 0.648545 0.000000
vn -0.761176 0.648545 0.000000
vn -0.761176 0.648545 0.000000
vn -0.761176 0.648545 0.000000
vn -1.000000 0.000001 0.000000
vn -1.000000 0.000001 0.000000
vn -1.000000 0.000001 0.000000
vn -1.000000 0.000001 0.000000
vn 1.000000 0.000004 0.000000
vn 1.000000 0.000004 0.000000
vn 1.000000 0.000004 0.000000
vn -1.000000 0.000003 0.000000
vn -1.000000 0.000003 0.000000
vn -1.000000 0.000003 0.000000
vn -0.112846 0.985115 0.129671
vn -0.112846 0.985115 0.129671
vn -0.112846 0.985115 0.129671
vn -0.112846 0.985115 0.129671
vn 1.000000 0.000001 0.000000
vn 1.000000 0.000001 0.000000
vn 1.000000 0.000001 0.000000
vn 1.000000 0.000001 0.000000
vn 0.255974 0.932448 0.254987
vn 0.255974 0.932448 0.254987
vn 0.255974 0.932448 0.254987
vn 0.255974 0.932448 0.254987
vn 0.253075 0.946378 0.200804
vn 0.253075 0.946378 0.200804
vn 0.253075 0.946378 0.200804
vn 0.253075 0.946378 0.200804
vn -0.042179 0.904436 0.424519
vn -0.042179 0.904436 0.424519
vn -0.042179 0.904436 0.424519
vn -0.042179 0.904436 0.424519
vn 0.018635 0.996797 0.077773
vn 0.018635 0.996797 0.077773
vn 0.018635 0.996797 0.077773
vn 0.018635 0.996797 0.077773
vn -0.360053 0.900106 0.245300
vn -0.360053 0.900106 0.245300
vn -0.360053 0.900106 0.245300
vn -0.360053 0.900106 0.245300
vn 0.048131 0.990526 0.128614
vn 0.048131 0.990526 0.128614
vn 0.048131 0.990526 0.128614
vn 0.048131 0.990526 0.128614
vn -0.033055 0.986798 0.158546
vn -0.033055 0.986798 0.158546
vn -0.033055 0.986798 0.158546
vn -0.033055 0.986798 0.158546
vn -1.000000 0.000000 0.000000
vn -1.000000 0.000000 0.000000
vn -1.000000 0.000000 0.000000
vn -1.000000 0.000000 0.000000
vn -0.196197 0.926125 0.322179
vn -0.196197 0.926125 0.322179
vn -0.196197 0.926125 0.322179
vn -0.196197 0.926125 0.322179
s 1
g pCube1
usemtl initialShadingGroup
f 1/78/1 5/82/2 6/103/3 3/97/4
s 2
f 3/3/5 6/6/6 24/24/7 21/21/8
s 3
f 5/5/9 23/75/10 29/73/11 11/11/12
s 1
f 6/103/3 5/82/2 11/81/13 12/100/14
s off
f 44/43/15 43/87/16 45/88/17 46/46/18
s 1
f 8/101/19 7/7/20 2/2/21 4/102/22
s 3
f 9/9/23 27/72/24 25/74/25 7/76/26
s 1
f 10/99/27 9/80/28 7/107/20 8/108/19
s 3
f 11/11/12 29/73/11 31/71/29 13/13/30
s 1
f 12/100/14 11/81/13 13/79/31 14/98/32
s 3
f 13/13/30 31/71/29 27/72/24 9/9/23
s 1
f 14/98/32 13/79/31 9/80/28 10/99/27
s off
f 1/78/33 3/97/34 16/96/35 15/77/36
f 3/3/37 21/21/38 34/34/39 16/16/40
s 6
f 15/77/41 16/96/42 38/93/43 37/106/44
s 7
f 16/16/45 34/34/46 40/40/47 38/38/48
s 3
f 19/70/49 23/75/10 5/5/9 1/1/50
s off
f 20/89/51 22/92/52 4/102/53 2/2/54
f 36/95/55 35/85/56 17/17/57 18/18/58
s 2
f 30/30/59 24/24/7 6/6/6 12/12/60
f 22/104/61 26/26/62 8/8/63 4/4/64
f 26/26/62 28/28/65 10/10/66 8/8/63
f 32/32/67 30/30/59 12/12/60 14/14/68
f 28/28/65 32/32/67 14/14/68 10/10/66
s off
f 33/69/69 19/70/70 1/1/71 15/15/72
f 52/84/73 48/83/74 53/52/75 54/53/76
s 6
f 37/37/44 38/105/43 18/18/77 17/17/78
s 7
f 38/38/48 40/40/47 36/36/79 18/94/80
s off
f 37/68/81 39/67/82 33/69/83 15/15/84
f 23/23/85 19/19/86 42/42/87 41/41/88
f 7/7/89 25/90/90 43/87/91 44/43/92
f 20/89/93 2/2/94 46/46/95 45/88/96
f 2/2/97 7/7/98 44/43/99 46/46/100
f 19/19/101 33/33/102 47/47/103 42/42/104
f 33/33/105 39/86/106 48/48/107 47/47/108
f 29/29/109 23/23/110 41/41/111 49/49/112
f 25/25/113 27/27/114 50/50/115 43/44/116
f 31/31/117 29/29/118 49/49/119 51/51/120
f 27/27/121 31/31/122 51/51/123 50/50/124
f 39/39/125 37/37/126 53/52/127 48/83/128
f 37/37/129 17/17/130 54/53/131 53/52/132
f 17/17/133 35/85/134 52/84/135 54/53/136
f 22/22/137 20/20/138 55/55/139
f 35/35/140 36/91/141 56/56/142
f 41/41/143 42/42/144 58/57/145 57/58/146
f 20/20/147 45/45/148 59/59/149 55/55/150
f 45/45/151 43/44/152 60/60/153 59/59/154
f 42/42/155 47/47/156 61/61/157 58/57/158
f 47/47/159 48/48/160 62/62/161 61/61/162
f 49/49/163 41/41/164 57/58/165 63/63/166
f 43/44/167 50/50/168 64/64/169 60/60/170
f 51/51/171 49/49/172 63/63/173 65/65/174
f 50/50/175 51/51/176 65/65/177 64/64/178
f 52/54/179 35/35/180 56/56/181 66/66/182
f 48/48/183 52/54/184 66/66/185 62/62/186
