# This file uses meters as units for non-parametric coordinates.

mtllib escombro.mtl
g default
v -26.748343 -34.843533 5.646664
v 18.336603 -16.197784 13.880986
v -11.988582 4.353432 24.824089
v 26.538713 12.333821 24.824089
v -11.988582 5.043849 -24.699884
v 26.538713 13.024239 -24.699884
v -26.748343 -26.114054 -13.747396
v 18.336603 -13.429362 -14.291159
v 0.601420 31.862080 7.887738
v 23.866283 35.632450 6.004365
v 23.866283 24.270958 -17.556347
v 0.601420 20.500597 -15.672972
vt 0.180770 0.027161
vt 0.494168 0.110001
vt 0.307015 0.284861
vt 0.587034 0.288633
vt 0.307257 0.664624
vt 0.593840 0.641946
vt 0.211439 0.867240
vt 0.504991 0.810099
vt 0.222937 1.000000
vt 0.536386 0.983680
vt 0.635982 0.000000
vt 0.804226 0.080184
vt 0.059558 0.083682
vt 0.000000 0.302202
vt 0.425270 0.424434
vt 0.516315 0.447529
vt 0.541405 0.571763
vt 0.410878 0.576621
vn 0.043874 -0.418341 0.907230
vn 0.043874 -0.418341 0.907230
vn 0.043874 -0.418341 0.907230
vn 0.043874 -0.418341 0.907230
vn -0.178239 0.886318 -0.427402
vn -0.178239 0.886317 -0.427402
vn -0.178239 0.886318 -0.427402
vn -0.178239 0.886318 -0.427402
vn 0.087096 -0.376664 -0.922246
vn 0.087096 -0.376664 -0.922246
vn 0.087096 -0.376664 -0.922246
vn 0.087096 -0.376664 -0.922246
vn 0.336862 -0.915196 -0.221225
vn 0.336862 -0.915196 -0.221225
vn 0.336862 -0.915196 -0.221225
vn 0.336862 -0.915196 -0.221225
vn 0.958220 -0.285750 -0.012721
vn 0.958220 -0.285750 -0.012721
vn 0.958220 -0.285750 -0.012721
vn 0.958220 -0.285750 -0.012721
vn -0.923026 0.381193 0.052102
vn -0.923026 0.381193 0.052102
vn -0.923026 0.381193 0.052102
vn -0.923026 0.381193 0.052102
vn -0.086586 0.584610 0.806681
vn -0.086586 0.584610 0.806681
vn -0.086586 0.584610 0.806681
vn -0.086586 0.584610 0.806681
vn 0.989080 0.145833 -0.021293
vn 0.989080 0.145833 -0.021293
vn 0.989080 0.145833 -0.021293
vn 0.989080 0.145833 -0.021293
vn -0.129461 0.548366 -0.826157
vn -0.129461 0.548366 -0.826157
vn -0.129461 0.548366 -0.826157
vn -0.129461 0.548366 -0.826157
vn -0.866245 0.494377 -0.072184
vn -0.866245 0.494377 -0.072184
vn -0.866245 0.494377 -0.072184
vn -0.866245 0.494377 -0.072184
s off
g pCube1
usemtl initialShadingGroup
f 1/1/1 2/2/2 4/4/3 3/3/4
f 9/15/5 10/16/6 11/17/7 12/18/8
f 5/5/9 6/6/10 8/8/11 7/7/12
f 7/7/13 8/8/14 2/10/15 1/9/16
f 2/2/17 8/11/18 6/12/19 4/4/20
f 7/13/21 1/1/22 3/3/23 5/14/24
f 3/3/25 4/4/26 10/16/27 9/15/28
f 4/4/29 6/6/30 11/17/31 10/16/32
f 6/6/33 5/5/34 12/18/35 11/17/36
f 5/5/37 3/3/38 9/15/39 12/18/40
