# This file uses centimeters as units for non-parametric coordinates.

mtllib Escudo_alaMitad.mtl
g default
v -0.157612 -1.148103 -1.093930
v -0.157613 -1.148103 1.119450
v 0.651579 -1.148103 0.739722
v 0.651581 -1.148103 -0.742055
v -0.157612 1.148103 -1.093930
v -0.157613 1.148103 1.119450
v 0.651579 1.148103 0.739722
v 0.651581 1.148103 -0.742055
v -0.157612 0.000000 -1.093930
v 0.651581 0.000000 -0.742055
v 0.651579 0.000000 0.739722
v -0.157613 0.000000 1.119450
v 0.921711 -1.148103 -0.001167
v 0.921711 0.000000 -0.001167
v 0.921711 1.148103 -0.001167
v 0.919831 -0.574051 0.458530
v 0.919831 0.574051 0.458530
v 0.919832 0.574051 -0.460863
v 0.919832 -0.574051 -0.460863
v 0.303412 0.574051 -1.024814
v 0.303412 -0.574051 -1.024814
v 0.291761 0.574051 1.008455
v 0.291761 -0.574051 1.008455
vt 0.389097 0.520941
vt 0.507905 0.521437
vt 0.450153 0.605983
vt 0.260821 0.691646
vt 0.329693 0.606044
vt 0.391063 0.690815
vt 0.015760 0.520609
vt 0.131757 0.520641
vt 0.079202 0.605575
vt 0.079370 0.435248
vt 0.330163 0.435508
vt 0.262205 0.349692
vt 0.391470 0.350579
vt 0.450333 0.435897
vt 0.198950 0.605854
vt 0.131269 0.691071
vt 0.131676 0.350210
vt 0.199063 0.435314
vt 0.261507 0.520668
vt 0.015671 0.690831
vt 0.015751 0.350388
vt 0.507452 0.350572
vt 0.507319 0.691681
vn 0.703915 0.000000 0.710284
vn 0.345713 0.000000 0.938340
vn 0.425684 0.000000 0.904872
vn 0.988527 -0.151042 0.000001
vn 0.935875 0.000000 0.352332
vn 0.697436 -0.135366 0.703746
vn 0.290913 0.000000 -0.956750
vn 0.704395 0.000000 -0.709808
vn 0.400302 0.000000 -0.916383
vn 0.290913 0.000000 -0.956750
vn 0.400302 0.000000 -0.916383
vn 0.704395 0.000000 -0.709808
vn 0.935875 0.000000 0.352332
vn 0.988527 0.151042 0.000001
vn 0.697436 0.135366 0.703746
vn 0.703915 0.000000 0.710284
vn 0.425684 0.000000 0.904872
vn 0.345713 0.000000 0.938340
vn 0.704395 0.000000 -0.709808
vn 0.935876 0.000000 -0.352330
vn 0.696202 -0.152082 -0.701552
vn 0.696202 0.152082 -0.701551
vn 0.935876 0.000000 -0.352330
vn 0.704395 0.000000 -0.709808
vn 0.696202 0.152082 -0.701551
vn 0.988527 0.151042 0.000001
vn 0.935876 0.000000 -0.352330
vn 0.697436 -0.135366 0.703746
vn 0.935875 0.000000 0.352332
vn 0.703915 0.000000 0.710284
vn 0.703915 0.000000 0.710284
vn 0.935875 0.000000 0.352332
vn 0.697436 0.135366 0.703746
vn 0.696202 -0.152082 -0.701552
vn 0.935876 0.000000 -0.352330
vn 0.988527 -0.151042 0.000001
vn 0.988527 -0.151042 0.000001
vn 1.000000 0.000000 0.000001
vn 0.935875 0.000000 0.352332
vn 0.703915 0.000000 0.710284
vn 0.935875 0.000000 0.352332
vn 1.000000 0.000000 0.000001
vn 1.000000 0.000000 0.000001
vn 0.935875 0.000000 0.352332
vn 0.703915 0.000000 0.710284
vn 1.000000 0.000000 0.000001
vn 0.988527 0.151042 0.000001
vn 0.935875 0.000000 0.352332
vn 0.935876 0.000000 -0.352330
vn 0.988527 0.151042 0.000001
vn 1.000000 0.000000 0.000001
vn 0.704395 0.000000 -0.709808
vn 0.935876 0.000000 -0.352330
vn 1.000000 0.000000 0.000001
vn 0.704395 0.000000 -0.709808
vn 1.000000 0.000000 0.000001
vn 0.935876 0.000000 -0.352330
vn 0.988527 -0.151042 0.000001
vn 0.935876 0.000000 -0.352330
vn 1.000000 0.000000 0.000001
vn 0.290913 0.000000 -0.956750
vn 0.400302 0.000000 -0.916383
vn 0.288893 -0.117618 -0.950109
vn 0.288893 0.117618 -0.950109
vn 0.400302 0.000000 -0.916383
vn 0.290913 0.000000 -0.956750
vn 0.288893 0.117618 -0.950109
vn 0.696202 0.152082 -0.701551
vn 0.400302 0.000000 -0.916383
vn 0.704395 0.000000 -0.709808
vn 0.400302 0.000000 -0.916383
vn 0.696202 0.152082 -0.701551
vn 0.400302 0.000000 -0.916383
vn 0.704395 0.000000 -0.709808
vn 0.696202 -0.152082 -0.701552
vn 0.288893 -0.117618 -0.950109
vn 0.400302 0.000000 -0.916383
vn 0.696202 -0.152082 -0.701552
vn 0.703915 0.000000 0.710284
vn 0.425684 0.000000 0.904872
vn 0.697436 -0.135366 0.703746
vn 0.697436 0.135366 0.703746
vn 0.425684 0.000000 0.904872
vn 0.703915 0.000000 0.710284
vn 0.697436 0.135366 0.703746
vn 0.344346 0.088845 0.934630
vn 0.425684 0.000000 0.904872
vn 0.345713 0.000000 0.938340
vn 0.425684 0.000000 0.904872
vn 0.344346 0.088845 0.934630
vn 0.425684 0.000000 0.904872
vn 0.345713 0.000000 0.938340
vn 0.344346 -0.088845 0.934630
vn 0.697436 -0.135366 0.703746
vn 0.425684 0.000000 0.904872
vn 0.344346 -0.088845 0.934630
s off
g Escudo_alaMitad:pCylinder1
usemtl Escudo_alaMitad:initialShadingGroup
f 11/1/1 12/2/2 23/3/3
f 13/4/4 16/5/5 3/6/6
f 9/7/7 10/8/8 21/9/9
f 9/7/10 20/10/11 10/8/12
f 17/11/13 15/12/14 7/13/15
f 11/1/16 22/14/17 12/2/18
f 10/8/19 19/15/20 4/16/21
f 8/17/22 18/18/23 10/8/24
f 8/17/25 15/12/26 18/18/27
f 3/6/28 16/5/29 11/1/30
f 11/1/31 17/11/32 7/13/33
f 4/16/34 19/15/35 13/4/36
f 13/4/37 14/19/38 16/5/39
f 11/1/40 16/5/41 14/19/42
f 14/19/43 17/11/44 11/1/45
f 14/19/46 15/12/47 17/11/48
f 18/18/49 15/12/50 14/19/51
f 10/8/52 18/18/53 14/19/54
f 10/8/55 14/19/56 19/15/57
f 13/4/58 19/15/59 14/19/60
f 9/7/61 21/9/62 1/20/63
f 5/21/64 20/10/65 9/7/66
f 5/21/67 8/17/68 20/10/69
f 10/8/70 20/10/71 8/17/72
f 21/9/73 10/8/74 4/16/75
f 1/20/76 21/9/77 4/16/78
f 11/1/79 23/3/80 3/6/81
f 7/13/82 22/14/83 11/1/84
f 7/13/85 6/22/86 22/14/87
f 12/2/88 22/14/89 6/22/90
f 23/3/91 12/2/92 2/23/93
f 3/6/94 23/3/95 2/23/96
