# This file uses centimeters as units for non-parametric coordinates.

mtllib Grapas3.mtl
g default
v -2.143895 2.539252 -0.229571
v -2.170137 1.793223 -0.209949
v -1.966107 2.532971 -0.230559
v -1.992347 1.786945 -0.210936
v -1.966237 2.532452 -0.250505
v -1.992477 1.786425 -0.230883
v -2.144024 2.538733 -0.249518
v -2.170267 1.792703 -0.229895
v -2.178245 1.828330 -0.209763
v -1.981783 1.821390 -0.210855
v -1.981926 1.820816 -0.232896
v -2.178387 1.827754 -0.231805
v -2.154150 2.513315 -0.227780
v -1.957689 2.506376 -0.228872
v -1.957831 2.505801 -0.250914
v -2.154292 2.512740 -0.249822
v -2.140967 2.551039 0.222436
v -2.151222 2.525102 0.224227
v -1.954761 2.518162 0.223136
v -1.963179 2.544758 0.221448
v -2.175318 1.840117 0.242245
v -1.978856 1.833177 0.241153
v -2.167210 1.805010 0.242060
v -1.989419 1.798732 0.241072
v 0.764202 -0.153455 -0.229571
v 0.108433 -0.510128 -0.209949
v 0.849177 -0.309747 -0.230559
v 0.193412 -0.666420 -0.210936
v 0.848664 -0.309899 -0.250505
v 0.192899 -0.666573 -0.230883
v 0.763688 -0.153608 -0.249518
v 0.107919 -0.510281 -0.229895
v 0.134543 -0.485299 -0.209763
v 0.228445 -0.658006 -0.210855
v 0.227878 -0.658175 -0.232896
v 0.133975 -0.485469 -0.231805
v 0.736653 -0.157810 -0.227780
v 0.830555 -0.330516 -0.228872
v 0.829988 -0.330686 -0.250914
v 0.736085 -0.157980 -0.249822
v 0.775840 -0.149984 0.222436
v 0.748291 -0.154339 0.224227
v 0.842194 -0.327046 0.223136
v 0.860816 -0.306275 0.221448
v 0.146181 -0.481827 0.242245
v 0.240083 -0.654535 0.241153
v 0.120071 -0.506657 0.242060
v 0.205051 -0.662949 0.241072
v 1.337951 -0.864638 -0.219840
v 1.096903 -1.571409 -0.219478
v 1.506326 -0.922064 -0.221023
v 1.265278 -1.628836 -0.220660
v 1.506197 -0.922030 -0.240976
v 1.265149 -1.628802 -0.240614
v 1.337822 -0.864604 -0.239794
v 1.096774 -1.571376 -0.239431
v 1.099295 -1.535474 -0.218385
v 1.285354 -1.598931 -0.219691
v 1.285212 -1.598894 -0.241740
v 1.099154 -1.535437 -0.240434
v 1.320621 -0.886533 -0.218718
v 1.506680 -0.949990 -0.220024
v 1.506538 -0.949953 -0.242074
v 1.320478 -0.886496 -0.240767
v 1.340867 -0.865400 0.232324
v 1.323537 -0.887296 0.233440
v 1.509595 -0.950752 0.232133
v 1.509242 -0.922826 0.231142
v 1.102212 -1.536237 0.233773
v 1.288270 -1.599694 0.232466
v 1.099819 -1.572172 0.232687
v 1.268194 -1.629598 0.231504
v 1.599637 -2.550699 -0.209603
v 2.155911 -2.053262 -0.236912
v 1.481280 -2.418013 -0.203613
v 2.037555 -1.920577 -0.230922
v 1.480290 -2.417999 -0.223542
v 2.036563 -1.920562 -0.250851
v 1.598644 -2.550683 -0.229533
v 2.154921 -2.053247 -0.256841
v 2.136268 -2.083401 -0.234908
v 2.005482 -1.936781 -0.228289
v 2.004386 -1.936765 -0.250311
v 2.135172 -2.083385 -0.256930
v 1.625509 -2.540135 -0.209834
v 1.494721 -2.393515 -0.203215
v 1.493627 -2.393498 -0.225237
v 1.624411 -2.540119 -0.231856
v 1.622112 -2.551039 0.242012
v 1.647983 -2.540477 0.241775
v 1.517196 -2.393856 0.248394
v 1.503754 -2.418354 0.248003
v 2.158742 -2.083742 0.216701
v 2.027956 -1.937122 0.223320
v 2.178387 -2.053603 0.214704
v 2.060032 -1.920918 0.220694
v -0.029439 0.828638 -0.229571
v -0.252019 0.116102 -0.209949
v 0.140359 0.775568 -0.230559
v -0.082217 0.063034 -0.210936
v 0.140097 0.775101 -0.250505
v -0.082480 0.062568 -0.230883
v -0.029701 0.828170 -0.249518
v -0.252281 0.115635 -0.229895
v -0.250555 0.152103 -0.209763
v -0.062921 0.093460 -0.210855
v -0.063210 0.092944 -0.232896
v -0.250844 0.151586 -0.231805
v -0.046188 0.806335 -0.227780
v 0.141445 0.747693 -0.228872
v 0.141156 0.747177 -0.250914
v -0.046477 0.805819 -0.249822
v -0.023499 0.839231 0.222436
v -0.040247 0.816928 0.224227
v 0.147386 0.758286 0.223136
v 0.146299 0.786161 0.221448
v -0.244615 0.162697 0.242245
v -0.056981 0.104053 0.241153
v -0.246078 0.126695 0.242060
v -0.076277 0.073628 0.241072
vt 0.375000 0.000000
vt 0.397500 0.000000
vt 0.397500 0.250000
vt 0.375000 0.250000
vt 0.375000 0.250000
vt 0.397500 0.250000
vt 0.397500 0.500000
vt 0.375000 0.500000
vt 0.397500 0.750000
vt 0.375000 0.750000
vt 0.397500 1.000000
vt 0.375000 1.000000
vt 0.625000 0.000000
vt 0.875000 0.000000
vt 0.875000 0.250000
vt 0.625000 0.250000
vt 0.125000 0.000000
vt 0.375000 0.000000
vt 0.125000 0.250000
vt 0.600000 0.250000
vt 0.600000 0.000000
vt 0.625000 0.000000
vt 0.625000 0.250000
vt 0.600000 0.500000
vt 0.600000 0.250000
vt 0.625000 0.500000
vt 0.600000 0.750000
vt 0.625000 0.750000
vt 0.600000 1.000000
vt 0.625000 1.000000
vt 0.397500 0.000000
vt 0.600000 0.000000
vt 0.375000 0.000000
vt 0.397500 0.000000
vt 0.397500 0.250000
vt 0.375000 0.250000
vt 0.375000 0.250000
vt 0.397500 0.250000
vt 0.397500 0.500000
vt 0.375000 0.500000
vt 0.397500 0.750000
vt 0.375000 0.750000
vt 0.397500 1.000000
vt 0.375000 1.000000
vt 0.625000 0.000000
vt 0.875000 0.000000
vt 0.875000 0.250000
vt 0.625000 0.250000
vt 0.125000 0.000000
vt 0.375000 0.000000
vt 0.125000 0.250000
vt 0.600000 0.250000
vt 0.600000 0.000000
vt 0.625000 0.000000
vt 0.625000 0.250000
vt 0.600000 0.500000
vt 0.600000 0.250000
vt 0.625000 0.500000
vt 0.600000 0.750000
vt 0.625000 0.750000
vt 0.600000 1.000000
vt 0.625000 1.000000
vt 0.397500 0.000000
vt 0.600000 0.000000
vt 0.375000 0.000000
vt 0.397500 0.000000
vt 0.397500 0.250000
vt 0.375000 0.250000
vt 0.375000 0.250000
vt 0.397500 0.250000
vt 0.397500 0.500000
vt 0.375000 0.500000
vt 0.397500 0.750000
vt 0.375000 0.750000
vt 0.397500 1.000000
vt 0.375000 1.000000
vt 0.625000 0.000000
vt 0.875000 0.000000
vt 0.875000 0.250000
vt 0.625000 0.250000
vt 0.125000 0.000000
vt 0.375000 0.000000
vt 0.125000 0.250000
vt 0.600000 0.250000
vt 0.600000 0.000000
vt 0.625000 0.000000
vt 0.625000 0.250000
vt 0.600000 0.500000
vt 0.600000 0.250000
vt 0.625000 0.500000
vt 0.600000 0.750000
vt 0.625000 0.750000
vt 0.600000 1.000000
vt 0.625000 1.000000
vt 0.397500 0.000000
vt 0.600000 0.000000
vt 0.375000 0.000000
vt 0.397500 0.000000
vt 0.397500 0.250000
vt 0.375000 0.250000
vt 0.375000 0.250000
vt 0.397500 0.250000
vt 0.397500 0.500000
vt 0.375000 0.500000
vt 0.397500 0.750000
vt 0.375000 0.750000
vt 0.397500 1.000000
vt 0.375000 1.000000
vt 0.625000 0.000000
vt 0.875000 0.000000
vt 0.875000 0.250000
vt 0.625000 0.250000
vt 0.125000 0.000000
vt 0.375000 0.000000
vt 0.125000 0.250000
vt 0.600000 0.250000
vt 0.600000 0.000000
vt 0.625000 0.000000
vt 0.625000 0.250000
vt 0.600000 0.500000
vt 0.600000 0.250000
vt 0.625000 0.500000
vt 0.600000 0.750000
vt 0.625000 0.750000
vt 0.600000 1.000000
vt 0.625000 1.000000
vt 0.397500 0.000000
vt 0.600000 0.000000
vt 0.375000 0.000000
vt 0.397500 0.000000
vt 0.397500 0.250000
vt 0.375000 0.250000
vt 0.375000 0.250000
vt 0.397500 0.250000
vt 0.397500 0.500000
vt 0.375000 0.500000
vt 0.397500 0.750000
vt 0.375000 0.750000
vt 0.397500 1.000000
vt 0.375000 1.000000
vt 0.625000 0.000000
vt 0.875000 0.000000
vt 0.875000 0.250000
vt 0.625000 0.250000
vt 0.125000 0.000000
vt 0.375000 0.000000
vt 0.125000 0.250000
vt 0.600000 0.250000
vt 0.600000 0.000000
vt 0.625000 0.000000
vt 0.625000 0.250000
vt 0.600000 0.500000
vt 0.600000 0.250000
vt 0.625000 0.500000
vt 0.600000 0.750000
vt 0.625000 0.750000
vt 0.600000 1.000000
vt 0.625000 1.000000
vt 0.397500 0.000000
vt 0.600000 0.000000
vn 0.007868 0.065796 0.997802
vn 0.007868 0.065796 0.997802
vn 0.007868 0.065796 0.997802
vn 0.007868 0.065796 0.997802
vn 0.953533 0.300963 -0.014014
vn 0.999717 -0.023077 -0.005866
vn 0.999717 -0.023077 -0.005866
vn 0.953533 0.300963 -0.014014
vn -0.005071 0.013692 -0.999893
vn -0.006435 -0.024959 -0.999668
vn -0.006435 -0.024959 -0.999668
vn -0.005071 0.013692 -0.999893
vn -0.930031 0.367463 -0.003566
vn -0.998857 0.047516 0.005211
vn -0.998857 0.047517 0.005211
vn -0.930031 0.367463 -0.003566
vn -0.035133 -0.999038 0.026252
vn -0.035133 -0.999038 0.026252
vn -0.035133 -0.999038 0.026252
vn -0.035133 -0.999038 0.026252
vn 0.035150 0.999037 -0.026253
vn 0.035150 0.999037 -0.026253
vn 0.035150 0.999037 -0.026253
vn 0.035150 0.999037 -0.026253
vn 0.005414 -0.004023 0.999977
vn 0.005414 -0.004023 0.999977
vn 0.005414 -0.004023 0.999977
vn 0.005414 -0.004023 0.999977
vn 0.998860 -0.047444 -0.005227
vn 0.998860 -0.047445 -0.005227
vn 0.956043 -0.293224 0.001416
vn 0.956043 -0.293224 0.001416
vn -0.006515 -0.027231 -0.999608
vn -0.006515 -0.027231 -0.999608
vn -0.007529 -0.056145 -0.998394
vn -0.007529 -0.056145 -0.998394
vn -0.999715 0.023149 0.005852
vn -0.999715 0.023148 0.005852
vn -0.974268 -0.225063 0.012181
vn -0.974268 -0.225063 0.012181
vn 0.006477 0.026067 0.999639
vn 0.006477 0.026067 0.999639
vn 0.006477 0.026067 0.999639
vn 0.006477 0.026067 0.999639
vn -0.930031 0.367465 -0.003558
vn -0.930031 0.367465 -0.003558
vn -0.930031 0.367465 -0.003558
vn -0.930031 0.367465 -0.003558
vn -0.035142 -0.999037 0.026278
vn -0.035142 -0.999037 0.026278
vn -0.035142 -0.999037 0.026278
vn -0.035142 -0.999037 0.026278
vn 0.953541 0.300938 -0.014025
vn 0.953541 0.300938 -0.014025
vn 0.953541 0.300938 -0.014025
vn 0.953541 0.300938 -0.014025
vn 0.035149 0.999037 -0.026278
vn 0.035149 0.999037 -0.026278
vn 0.035149 0.999037 -0.026278
vn 0.035149 0.999037 -0.026278
vn 0.035146 0.999037 -0.026279
vn 0.035146 0.999037 -0.026279
vn 0.035146 0.999037 -0.026279
vn 0.035146 0.999037 -0.026279
vn -0.974268 -0.225062 0.012179
vn -0.974268 -0.225062 0.012179
vn -0.974268 -0.225062 0.012179
vn -0.974268 -0.225062 0.012179
vn -0.035133 -0.999037 0.026279
vn -0.035133 -0.999037 0.026279
vn -0.035133 -0.999037 0.026279
vn -0.035133 -0.999037 0.026279
vn 0.956047 -0.293211 0.001453
vn 0.956047 -0.293211 0.001453
vn 0.956047 -0.293211 0.001453
vn 0.956047 -0.293211 0.001453
vn 0.060659 0.026674 0.997802
vn 0.060659 0.026674 0.997802
vn 0.060659 0.026674 0.997802
vn 0.060659 0.026674 0.997802
vn 0.743929 -0.668112 -0.014017
vn 0.488371 -0.872617 -0.005862
vn 0.488371 -0.872617 -0.005862
vn 0.743928 -0.668112 -0.014017
vn 0.009214 0.011328 -0.999893
vn -0.024765 -0.007147 -0.999668
vn -0.024765 -0.007147 -0.999668
vn 0.009214 0.011328 -0.999893
vn -0.156384 0.987690 -0.003570
vn -0.466888 0.884301 0.005201
vn -0.466888 0.884301 0.005201
vn -0.156384 0.987690 -0.003570
vn -0.878162 -0.477643 0.026251
vn -0.878162 -0.477643 0.026251
vn -0.878162 -0.477643 0.026251
vn -0.878162 -0.477643 0.026251
vn 0.878169 0.477628 -0.026267
vn 0.878169 0.477628 -0.026267
vn 0.878169 0.477628 -0.026267
vn 0.878170 0.477628 -0.026267
vn -0.000712 -0.006708 0.999977
vn -0.000712 -0.006708 0.999977
vn -0.000712 -0.006708 0.999977
vn -0.000712 -0.006708 0.999977
vn 0.466953 -0.884267 -0.005223
vn 0.466952 -0.884267 -0.005223
vn 0.233539 -0.972346 0.001426
vn 0.233539 -0.972346 0.001426
vn -0.026761 -0.008233 -0.999608
vn -0.026761 -0.008233 -0.999608
vn -0.052175 -0.022060 -0.998394
vn -0.052175 -0.022060 -0.998394
vn -0.488308 0.872652 0.005843
vn -0.488309 0.872651 0.005843
vn -0.689108 0.724556 0.012171
vn -0.689108 0.724556 0.012171
vn 0.025739 0.007674 0.999639
vn 0.025739 0.007674 0.999639
vn 0.025739 0.007674 0.999639
vn 0.025739 0.007674 0.999639
vn -0.156378 0.987691 -0.003558
vn -0.156378 0.987691 -0.003558
vn -0.156378 0.987691 -0.003558
vn -0.156378 0.987691 -0.003558
vn -0.878165 -0.477635 0.026279
vn -0.878165 -0.477635 0.026279
vn -0.878165 -0.477635 0.026279
vn -0.878165 -0.477635 0.026279
vn 0.743919 -0.668123 -0.014024
vn 0.743919 -0.668123 -0.014024
vn 0.743919 -0.668123 -0.014024
vn 0.743919 -0.668123 -0.014024
vn 0.878169 0.477628 -0.026279
vn 0.878169 0.477628 -0.026279
vn 0.878169 0.477628 -0.026279
vn 0.878169 0.477628 -0.026279
vn 0.878167 0.477632 -0.026280
vn 0.878167 0.477632 -0.026280
vn 0.878167 0.477632 -0.026280
vn 0.878167 0.477632 -0.026280
vn -0.689116 0.724548 0.012179
vn -0.689116 0.724548 0.012179
vn -0.689116 0.724548 0.012179
vn -0.689116 0.724548 0.012179
vn -0.878161 -0.477644 0.026280
vn -0.878161 -0.477644 0.026280
vn -0.878161 -0.477643 0.026280
vn -0.878161 -0.477644 0.026280
vn 0.233544 -0.972345 0.001454
vn 0.233544 -0.972345 0.001454
vn 0.233544 -0.972345 0.001454
vn 0.233544 -0.972345 0.001454
vn 0.019201 0.035725 0.999177
vn 0.019201 0.035725 0.999177
vn 0.019201 0.035725 0.999177
vn 0.019201 0.035725 0.999177
vn 0.999902 0.012436 -0.006435
vn 0.950323 -0.311194 -0.006651
vn 0.950323 -0.311194 -0.006651
vn 0.999902 0.012436 -0.006435
vn 0.006399 0.039345 -0.999205
vn -0.006092 0.002735 -0.999978
vn -0.006092 0.002735 -0.999978
vn 0.006399 0.039345 -0.999205
vn -0.783939 0.620808 0.006100
vn -0.942427 0.334346 0.006633
vn -0.942427 0.334346 0.006633
vn -0.783939 0.620808 0.006100
vn -0.322799 -0.946468 0.000495
vn -0.322799 -0.946468 0.000495
vn -0.322799 -0.946468 0.000495
vn -0.322799 -0.946468 0.000495
vn 0.322800 0.946467 -0.000487
vn 0.322800 0.946467 -0.000487
vn 0.322800 0.946467 -0.000487
vn 0.322800 0.946467 -0.000487
vn -0.003209 -0.029990 0.999545
vn -0.003209 -0.029990 0.999545
vn -0.003209 -0.029990 0.999545
vn -0.003209 -0.029990 0.999545
vn 0.942451 -0.334279 -0.006639
vn 0.942451 -0.334279 -0.006639
vn 0.830327 -0.557241 -0.006304
vn 0.830327 -0.557241 -0.006304
vn -0.006826 0.000583 -0.999977
vn -0.006826 0.000583 -0.999977
vn -0.016160 -0.026803 -0.999510
vn -0.016160 -0.026803 -0.999510
vn -0.950301 0.311261 0.006645
vn -0.950301 0.311261 0.006645
vn -0.997782 0.066246 0.006543
vn -0.997782 0.066246 0.006543
vn 0.006447 -0.001686 0.999978
vn 0.006447 -0.001686 0.999978
vn 0.006447 -0.001686 0.999978
vn 0.006447 -0.001686 0.999978
vn -0.783937 0.620811 0.006103
vn -0.783937 0.620811 0.006103
vn -0.783937 0.620811 0.006103
vn -0.783937 0.620811 0.006103
vn -0.322795 -0.946469 0.000485
vn -0.322795 -0.946469 0.000485
vn -0.322795 -0.946469 0.000485
vn -0.322795 -0.946469 0.000485
vn 0.999902 0.012419 -0.006427
vn 0.999902 0.012419 -0.006427
vn 0.999902 0.012419 -0.006427
vn 0.999902 0.012419 -0.006427
vn 0.322799 0.946467 -0.000486
vn 0.322799 0.946467 -0.000486
vn 0.322800 0.946467 -0.000486
vn 0.322799 0.946467 -0.000486
vn 0.322800 0.946467 -0.000485
vn 0.322800 0.946467 -0.000485
vn 0.322800 0.946467 -0.000485
vn 0.322800 0.946467 -0.000485
vn -0.997782 0.066240 0.006546
vn -0.997782 0.066240 0.006546
vn -0.997782 0.066240 0.006546
vn -0.997782 0.066240 0.006546
vn -0.322798 -0.946468 0.000486
vn -0.322798 -0.946468 0.000486
vn -0.322798 -0.946468 0.000486
vn -0.322798 -0.946468 0.000486
vn 0.830332 -0.557234 -0.006293
vn 0.830332 -0.557234 -0.006293
vn 0.830332 -0.557234 -0.006293
vn 0.830332 -0.557234 -0.006293
vn 0.020231 -0.027075 0.999429
vn 0.020231 -0.027075 0.999429
vn 0.020231 -0.027075 0.999429
vn 0.020231 -0.027075 0.999429
vn -0.876165 0.480008 0.043891
vn -0.674349 0.737625 0.034089
vn -0.674348 0.737626 0.034089
vn -0.876165 0.480008 0.043891
vn -0.079301 -0.025744 -0.996518
vn -0.050531 0.000016 -0.998723
vn -0.050531 0.000016 -0.998723
vn -0.079301 -0.025744 -0.996518
vn 0.377786 -0.925687 -0.019535
vn 0.656124 -0.753921 -0.033236
vn 0.656126 -0.753919 -0.033237
vn 0.377786 -0.925687 -0.019535
vn 0.744933 0.666138 -0.036537
vn 0.744933 0.666138 -0.036537
vn 0.744933 0.666138 -0.036537
vn 0.744933 0.666138 -0.036537
vn -0.744934 -0.666135 0.036578
vn -0.744934 -0.666135 0.036578
vn -0.744934 -0.666135 0.036578
vn -0.744934 -0.666135 0.036578
vn 0.071965 0.019173 0.997223
vn 0.071965 0.019173 0.997223
vn 0.071965 0.019173 0.997223
vn 0.071965 0.019173 0.997223
vn -0.656181 0.753873 0.033201
vn -0.656180 0.753873 0.033201
vn -0.449313 0.893077 0.023050
vn -0.449313 0.893077 0.023050
vn -0.048837 0.001531 -0.998806
vn -0.048837 0.001531 -0.998806
vn -0.027243 0.020819 -0.999412
vn -0.027243 0.020819 -0.999412
vn 0.674294 -0.737674 -0.034125
vn 0.674294 -0.737674 -0.034125
vn 0.835747 -0.547509 -0.041961
vn 0.835747 -0.547509 -0.041961
vn 0.049705 -0.000754 0.998764
vn 0.049705 -0.000754 0.998764
vn 0.049705 -0.000754 0.998764
vn 0.049705 -0.000754 0.998764
vn 0.377768 -0.925695 -0.019498
vn 0.377768 -0.925695 -0.019498
vn 0.377768 -0.925695 -0.019498
vn 0.377768 -0.925695 -0.019498
vn 0.744930 0.666140 -0.036568
vn 0.744930 0.666140 -0.036568
vn 0.744930 0.666140 -0.036568
vn 0.744930 0.666140 -0.036568
vn -0.876159 0.480013 0.043964
vn -0.876159 0.480013 0.043964
vn -0.876159 0.480013 0.043964
vn -0.876159 0.480013 0.043964
vn -0.744928 -0.666142 0.036569
vn -0.744928 -0.666142 0.036569
vn -0.744928 -0.666142 0.036569
vn -0.744928 -0.666142 0.036569
vn -0.744934 -0.666135 0.036569
vn -0.744934 -0.666135 0.036569
vn -0.744934 -0.666135 0.036569
vn -0.744934 -0.666135 0.036569
vn 0.835741 -0.547515 -0.042006
vn 0.835741 -0.547515 -0.042006
vn 0.835741 -0.547515 -0.042006
vn 0.835741 -0.547515 -0.042006
vn 0.744933 0.666136 -0.036571
vn 0.744933 0.666136 -0.036571
vn 0.744933 0.666136 -0.036571
vn 0.744933 0.666136 -0.036571
vn -0.449301 0.893083 0.023035
vn -0.449301 0.893083 0.023035
vn -0.449301 0.893083 0.023035
vn -0.449301 0.893083 0.023035
vn 0.024987 0.061373 0.997802
vn 0.024987 0.061373 0.997802
vn 0.024987 0.061373 0.997802
vn 0.024987 0.061373 0.997802
vn 0.999176 0.038100 -0.014018
vn 0.958030 -0.286608 -0.005865
vn 0.958030 -0.286608 -0.005865
vn 0.999176 0.038100 -0.014018
vn -0.001270 0.014546 -0.999893
vn -0.012806 -0.022369 -0.999668
vn -0.012806 -0.022369 -0.999668
vn -0.001270 0.014546 -0.999893
vn -0.799760 0.600309 -0.003570
vn -0.950739 0.309950 0.005198
vn -0.950739 0.309950 0.005198
vn -0.799760 0.600309 -0.003570
vn -0.298056 -0.954187 0.026243
vn -0.298056 -0.954187 0.026243
vn -0.298056 -0.954187 0.026243
vn -0.298056 -0.954188 0.026243
vn 0.298072 0.954182 -0.026270
vn 0.298072 0.954182 -0.026270
vn 0.298072 0.954182 -0.026270
vn 0.298072 0.954182 -0.026270
vn 0.004158 -0.005312 0.999977
vn 0.004158 -0.005312 0.999977
vn 0.004158 -0.005312 0.999977
vn 0.004158 -0.005312 0.999977
vn 0.950761 -0.309881 -0.005226
vn 0.950761 -0.309882 -0.005226
vn 0.844477 -0.535591 0.001424
vn 0.844477 -0.535590 0.001424
vn -0.013484 -0.024539 -0.999608
vn -0.013484 -0.024539 -0.999608
vn -0.022107 -0.052156 -0.998394
vn -0.022107 -0.052156 -0.998394
vn -0.958009 0.286677 0.005839
vn -0.958010 0.286676 0.005839
vn -0.999102 0.040576 0.012168
vn -0.999102 0.040576 0.012168
vn 0.013139 0.023426 0.999639
vn 0.013139 0.023426 0.999639
vn 0.013139 0.023426 0.999639
vn 0.013139 0.023426 0.999639
vn -0.799758 0.600313 -0.003558
vn -0.799758 0.600313 -0.003558
vn -0.799758 0.600313 -0.003558
vn -0.799758 0.600313 -0.003558
vn -0.298065 -0.954184 0.026278
vn -0.298065 -0.954184 0.026278
vn -0.298065 -0.954184 0.026278
vn -0.298065 -0.954184 0.026278
vn 0.999176 0.038090 -0.014024
vn 0.999176 0.038090 -0.014024
vn 0.999176 0.038090 -0.014024
vn 0.999176 0.038090 -0.014024
vn 0.298073 0.954181 -0.026279
vn 0.298073 0.954181 -0.026279
vn 0.298073 0.954181 -0.026279
vn 0.298073 0.954181 -0.026279
vn 0.298068 0.954183 -0.026280
vn 0.298068 0.954183 -0.026280
vn 0.298068 0.954183 -0.026280
vn 0.298068 0.954183 -0.026280
vn -0.999103 0.040561 0.012180
vn -0.999103 0.040561 0.012180
vn -0.999103 0.040561 0.012180
vn -0.999103 0.040561 0.012180
vn -0.298056 -0.954187 0.026280
vn -0.298056 -0.954187 0.026280
vn -0.298056 -0.954187 0.026280
vn -0.298056 -0.954187 0.026280
vn 0.844480 -0.535585 0.001454
vn 0.844480 -0.535585 0.001454
vn 0.844480 -0.535585 0.001454
vn 0.844480 -0.535585 0.001454
s off
g polySurface6
usemtl initialShadingGroup
f 17/1/1 18/2/2 19/3/3 20/4/4
s 1
f 3/5/5 14/6/6 15/7/7 5/8/8
s 2
f 5/8/9 15/7/10 16/9/11 7/10/12
s 3
f 7/10/13 16/9/14 13/11/15 1/12/16
s off
f 2/13/17 8/14/18 6/15/19 4/16/20
f 7/17/21 1/18/22 3/5/23 5/19/24
f 22/20/25 21/21/26 23/22/27 24/23/28
s 1
f 11/24/29 10/25/30 4/16/31 6/26/32
s 2
f 12/27/33 11/24/34 6/26/35 8/28/36
s 3
f 9/29/37 12/27/38 8/28/39 2/30/40
s off
f 14/6/41 13/31/42 9/32/43 10/25/44
s 1
f 15/7/7 14/6/6 10/25/30 11/24/29
s 2
f 16/9/11 15/7/10 11/24/34 12/27/33
s 3
f 13/11/15 16/9/14 12/27/38 9/29/37
s off
f 1/18/45 13/31/46 18/2/47 17/1/48
f 13/31/49 14/6/50 19/3/51 18/2/52
f 14/6/53 3/5/54 20/4/55 19/3/56
f 3/5/57 1/18/58 17/1/59 20/4/60
f 10/25/61 9/32/62 21/21/63 22/20/64
f 9/32/65 2/13/66 23/22/67 21/21/68
f 2/13/69 4/16/70 24/23/71 23/22/72
f 4/16/73 10/25/74 22/20/75 24/23/76
f 41/33/77 42/34/78 43/35/79 44/36/80
s 4
f 27/37/81 38/38/82 39/39/83 29/40/84
s 5
f 29/40/85 39/39/86 40/41/87 31/42/88
s 6
f 31/42/89 40/41/90 37/43/91 25/44/92
s off
f 26/45/93 32/46/94 30/47/95 28/48/96
f 31/49/97 25/50/98 27/37/99 29/51/100
f 46/52/101 45/53/102 47/54/103 48/55/104
s 4
f 35/56/105 34/57/106 28/48/107 30/58/108
s 5
f 36/59/109 35/56/110 30/58/111 32/60/112
s 6
f 33/61/113 36/59/114 32/60/115 26/62/116
s off
f 38/38/117 37/63/118 33/64/119 34/57/120
s 4
f 39/39/83 38/38/82 34/57/106 35/56/105
s 5
f 40/41/87 39/39/86 35/56/110 36/59/109
s 6
f 37/43/91 40/41/90 36/59/114 33/61/113
s off
f 25/50/121 37/63/122 42/34/123 41/33/124
f 37/63/125 38/38/126 43/35/127 42/34/128
f 38/38/129 27/37/130 44/36/131 43/35/132
f 27/37/133 25/50/134 41/33/135 44/36/136
f 34/57/137 33/64/138 45/53/139 46/52/140
f 33/64/141 26/45/142 47/54/143 45/53/144
f 26/45/145 28/48/146 48/55/147 47/54/148
f 28/48/149 34/57/150 46/52/151 48/55/152
f 65/65/153 66/66/154 67/67/155 68/68/156
s 7
f 51/69/157 62/70/158 63/71/159 53/72/160
s 8
f 53/72/161 63/71/162 64/73/163 55/74/164
s 9
f 55/74/165 64/73/166 61/75/167 49/76/168
s off
f 50/77/169 56/78/170 54/79/171 52/80/172
f 55/81/173 49/82/174 51/69/175 53/83/176
f 70/84/177 69/85/178 71/86/179 72/87/180
s 7
f 59/88/181 58/89/182 52/80/183 54/90/184
s 8
f 60/91/185 59/88/186 54/90/187 56/92/188
s 9
f 57/93/189 60/91/190 56/92/191 50/94/192
s off
f 62/70/193 61/95/194 57/96/195 58/89/196
s 7
f 63/71/159 62/70/158 58/89/182 59/88/181
s 8
f 64/73/163 63/71/162 59/88/186 60/91/185
s 9
f 61/75/167 64/73/166 60/91/190 57/93/189
s off
f 49/82/197 61/95/198 66/66/199 65/65/200
f 61/95/201 62/70/202 67/67/203 66/66/204
f 62/70/205 51/69/206 68/68/207 67/67/208
f 51/69/209 49/82/210 65/65/211 68/68/212
f 58/89/213 57/96/214 69/85/215 70/84/216
f 57/96/217 50/77/218 71/86/219 69/85/220
f 50/77/221 52/80/222 72/87/223 71/86/224
f 52/80/225 58/89/226 70/84/227 72/87/228
f 89/97/229 90/98/230 91/99/231 92/100/232
s 10
f 75/101/233 86/102/234 87/103/235 77/104/236
s 11
f 77/104/237 87/103/238 88/105/239 79/106/240
s 12
f 79/106/241 88/105/242 85/107/243 73/108/244
s off
f 74/109/245 80/110/246 78/111/247 76/112/248
f 79/113/249 73/114/250 75/101/251 77/115/252
f 94/116/253 93/117/254 95/118/255 96/119/256
s 10
f 83/120/257 82/121/258 76/112/259 78/122/260
s 11
f 84/123/261 83/120/262 78/122/263 80/124/264
s 12
f 81/125/265 84/123/266 80/124/267 74/126/268
s off
f 86/102/269 85/127/270 81/128/271 82/121/272
s 10
f 87/103/235 86/102/234 82/121/258 83/120/257
s 11
f 88/105/239 87/103/238 83/120/262 84/123/261
s 12
f 85/107/243 88/105/242 84/123/266 81/125/265
s off
f 73/114/273 85/127/274 90/98/275 89/97/276
f 85/127/277 86/102/278 91/99/279 90/98/280
f 86/102/281 75/101/282 92/100/283 91/99/284
f 75/101/285 73/114/286 89/97/287 92/100/288
f 82/121/289 81/128/290 93/117/291 94/116/292
f 81/128/293 74/109/294 95/118/295 93/117/296
f 74/109/297 76/112/298 96/119/299 95/118/300
f 76/112/301 82/121/302 94/116/303 96/119/304
f 113/129/305 114/130/306 115/131/307 116/132/308
s 13
f 99/133/309 110/134/310 111/135/311 101/136/312
s 14
f 101/136/313 111/135/314 112/137/315 103/138/316
s 15
f 103/138/317 112/137/318 109/139/319 97/140/320
s off
f 98/141/321 104/142/322 102/143/323 100/144/324
f 103/145/325 97/146/326 99/133/327 101/147/328
f 118/148/329 117/149/330 119/150/331 120/151/332
s 13
f 107/152/333 106/153/334 100/144/335 102/154/336
s 14
f 108/155/337 107/152/338 102/154/339 104/156/340
s 15
f 105/157/341 108/155/342 104/156/343 98/158/344
s off
f 110/134/345 109/159/346 105/160/347 106/153/348
s 13
f 111/135/311 110/134/310 106/153/334 107/152/333
s 14
f 112/137/315 111/135/314 107/152/338 108/155/337
s 15
f 109/139/319 112/137/318 108/155/342 105/157/341
s off
f 97/146/349 109/159/350 114/130/351 113/129/352
f 109/159/353 110/134/354 115/131/355 114/130/356
f 110/134/357 99/133/358 116/132/359 115/131/360
f 99/133/361 97/146/362 113/129/363 116/132/364
f 106/153/365 105/160/366 117/149/367 118/148/368
f 105/160/369 98/141/370 119/150/371 117/149/372
f 98/141/373 100/144/374 120/151/375 119/150/376
f 100/144/377 106/153/378 118/148/379 120/151/380
