# This file uses meters as units for non-parametric coordinates.

mtllib HuesoDoblado.mtl
g default
v 26.681984 -19.885742 210.321747
v 49.154709 -19.885742 232.794464
v 26.681984 23.204205 210.321747
v 49.154709 23.204205 232.794479
v 52.900162 1.659232 236.539948
v 22.936531 1.659232 206.576294
v 37.918343 30.385864 221.558105
v 37.918343 -27.067402 221.558105
v 7.818821 41.481911 229.184906
v 17.740839 48.418861 241.735626
v 30.291559 41.481911 251.657623
v 8.016378 20.671068 221.496445
v 37.980022 20.671068 251.460083
v 6.893959 -32.546101 230.109772
v 16.815977 -39.483047 242.660477
v 29.366695 -32.546101 252.582489
v 7.091513 -11.735255 222.421295
v 37.055149 -11.735255 252.384964
v -4.675316 40.260017 247.502335
v 2.686016 46.933754 256.790436
v 11.974125 40.260017 264.151764
v 1.765884 18.751385 235.511337
v 23.965124 18.751385 257.710571
v -3.139380 -32.548290 243.460052
v 5.925444 -39.477264 253.551010
v 16.016407 -32.548302 262.615845
v 1.542791 -9.360515 232.392578
v 27.083866 -9.360516 257.933655
v -12.825966 22.522758 255.652985
v -5.886007 25.612209 265.362488
v 3.823479 22.522758 272.302429
v -5.120615 11.767019 242.397827
v 17.078625 11.767019 264.597076
v -12.679855 -15.633906 253.000504
v -4.295153 -18.973080 263.771606
v 6.475958 -15.633906 272.156311
v -5.957209 -3.215539 239.892593
v 19.583858 -3.215539 265.433655
v -3.680996 17.099628 263.157440
v 4.397465 8.987051 255.078979
v 11.579812 7.815296 247.896637
v 22.998198 8.579047 236.478256
v 37.918343 1.659232 221.558105
v 22.073326 0.356767 237.403122
v 12.238091 1.592351 247.238373
v 5.008482 -0.607152 254.467987
v -2.646990 -9.998126 262.123444
v 62.003128 15.873656 17.797009
v 93.784370 15.873656 17.797009
v 62.003128 -12.555191 17.797009
v 93.784370 -12.555191 17.797009
v 77.893745 20.611801 17.797009
v 77.893745 -17.293339 17.797009
v 99.081238 1.659232 17.797009
v 56.706257 1.659232 17.797009
v 26.681980 -19.885742 -174.727722
v 49.154709 -19.885742 -197.200455
v 26.681980 23.204205 -174.727722
v 49.154709 23.204205 -197.200455
v 52.900169 1.659232 -200.945892
v 22.936527 1.659232 -170.982269
v 37.918350 30.385864 -185.964081
v 37.918350 -27.067402 -185.964081
v 7.818827 41.481911 -193.590881
v 17.740839 48.418861 -206.141602
v 30.291557 41.481911 -216.063599
v 8.016380 20.671068 -185.902405
v 37.980026 20.671068 -215.866058
v 6.893965 -32.546101 -194.515747
v 16.815977 -39.483047 -207.066452
v 29.366695 -32.546101 -216.988480
v 7.091511 -11.735255 -186.827271
v 37.055149 -11.735255 -216.790924
v -4.675320 40.260017 -211.908310
v 2.686014 46.933754 -221.196411
v 11.974129 40.260017 -228.557739
v 1.765882 18.751385 -199.917313
v 23.965124 18.751385 -222.116562
v -3.139380 -32.548290 -207.866028
v 5.925446 -39.477264 -217.956985
v 16.016411 -32.548302 -227.021805
v 1.542788 -9.360515 -196.798553
v 27.083866 -9.360516 -222.339645
v -12.825962 22.522758 -220.058960
v -5.886013 25.612209 -229.768448
v 3.823479 22.522758 -236.708389
v -5.120625 11.767019 -206.803802
v 17.078627 11.767019 -229.003052
v -12.679859 -15.633906 -217.406479
v -4.295155 -18.973080 -228.177582
v 6.475954 -15.633906 -236.562271
v -5.957203 -3.215539 -204.298569
v 19.583860 -3.215539 -229.839645
v -3.680996 17.099628 -227.563431
v 4.397469 8.987051 -219.484955
v 11.579813 7.815296 -212.302612
v 22.998201 8.579047 -200.884232
v 37.918350 1.659232 -185.964081
v 22.073324 0.356767 -201.809097
v 12.238090 1.592351 -211.644348
v 5.008480 -0.607152 -218.873962
v -2.646988 -9.998126 -226.529419
v 52.605862 19.538931 115.141464
v 47.308990 1.659232 115.141464
v 52.605862 -16.220467 115.141464
v 68.496483 -22.180368 115.141464
v 84.387100 -16.220467 115.141464
v 89.683975 1.659232 115.141464
v 84.387100 19.538931 115.141464
v 68.496483 25.498833 115.141464
v 61.436871 26.476240 -99.016342
v 77.327492 20.271986 -99.016342
v 82.624359 1.659232 -99.016342
v 77.327492 -16.953522 -99.016342
v 61.436871 -23.157776 -99.016342
v 45.546249 -16.953522 -99.016342
v 40.249378 1.659232 -99.016342
v 45.546253 20.271986 -99.016342
vt 0.254013 0.022563
vt 0.167325 0.033135
vt 0.998922 0.281464
vt 0.791211 0.250314
vt 0.904916 0.202195
vt 0.709316 0.007001
vt 0.118423 0.059845
vt 0.718236 0.241682
vt 0.950771 0.275369
vt 0.899286 0.254966
vt 0.843137 0.258548
vt 0.961844 0.347819
vt 0.806100 0.323290
vt 0.739616 0.054354
vt 0.699527 0.095373
vt 0.793596 0.035664
vt 0.715653 0.172457
vt 0.856735 0.082199
vt 0.928463 0.297427
vt 0.894350 0.287532
vt 0.859428 0.286286
vt 0.940311 0.363458
vt 0.832255 0.346868
vt 0.753329 0.076849
vt 0.724215 0.103718
vt 0.790038 0.062032
vt 0.736426 0.173919
vt 0.849195 0.101573
vt 0.913614 0.334700
vt 0.889539 0.325530
vt 0.864029 0.326612
vt 0.916277 0.365820
vt 0.853415 0.355786
vt 0.774300 0.109632
vt 0.754820 0.132782
vt 0.803804 0.101432
vt 0.762041 0.160510
vt 0.826108 0.119099
vt 0.886689 0.344504
vt 0.882863 0.371104
vt 0.879657 0.390647
vt 0.874125 0.416531
vt 0.848117 0.224135
vt 0.826259 0.189866
vt 0.812800 0.168822
vt 0.801493 0.151358
vt 0.784462 0.125250
vt 0.332807 0.570100
vt 0.398797 0.521543
vt 0.527754 0.432363
vt 0.459942 0.478341
vt 0.365867 0.545830
vt 0.493834 0.455416
vt 0.429198 0.499699
vt 0.302295 0.591733
vt 0.479451 0.000006
vt 0.602655 0.003582
vt 0.651996 0.116469
vt 0.782369 0.903660
vt 0.740943 0.940928
vt 0.520965 0.029234
vt 0.571711 0.049837
vt 0.609343 0.089194
vt 0.858733 0.785406
vt 0.463666 0.077895
vt 0.585602 0.160314
vt 0.820563 0.825002
vt 0.802421 0.864754
vt 0.089852 0.498359
vt 0.144141 0.481355
vt 0.048387 0.537603
vt 0.205287 0.530278
vt 0.060856 0.615099
vt 0.521434 0.060899
vt 0.552955 0.077505
vt 0.579394 0.101327
vt 0.468979 0.103929
vt 0.559333 0.165204
vt 0.103630 0.521245
vt 0.140729 0.508255
vt 0.073434 0.546183
vt 0.197044 0.549253
vt 0.081312 0.617337
vt 0.507013 0.099137
vt 0.530850 0.109150
vt 0.548873 0.128070
vt 0.484595 0.121086
vt 0.537331 0.157024
vt 0.123121 0.554753
vt 0.152363 0.550791
vt 0.101422 0.577054
vt 0.173820 0.567470
vt 0.107457 0.605352
vt 0.483640 0.179805
vt 0.191421 0.671980
vt 0.495108 0.162675
vt 0.505390 0.147242
vt 0.520034 0.125180
vt 0.170893 0.637065
vt 0.158276 0.616108
vt 0.147478 0.598810
vt 0.131314 0.571638
vt 0.184343 0.371852
vt 0.428279 0.200399
vt 0.390488 0.226203
vt 0.360233 0.254005
vt 0.331070 0.282602
vt 0.295481 0.310444
vt 0.257350 0.334688
vt 0.220655 0.352623
vt 0.525943 0.789019
vt 0.555291 0.759807
vt 0.592395 0.730681
vt 0.632242 0.705438
vt 0.669581 0.687534
vt 0.706399 0.668301
vt 0.456278 0.844082
vt 0.495516 0.817298
vt 0.918537 0.113652
vt 0.076912 0.097015
vt 0.829727 0.000003
vt 0.304074 0.000000
vt 0.037990 0.175191
vt 0.652296 0.113390
vt 0.056490 0.135696
vt 0.210606 0.026807
vt 0.181669 0.447206
vt 0.265947 0.564115
vt 0.061083 0.449682
vt 0.000000 0.553683
vt 0.605080 0.977249
vt 0.582238 0.244992
vt 0.691978 0.967525
vt 0.648609 0.973429
vt 0.744752 0.640264
vt 0.558336 0.410830
vt 0.147397 0.398853
vt 0.386360 0.112798
vt 0.555007 1.000000
vt 0.453302 0.224819
vt 0.060881 0.684471
vt 0.866492 0.465632
vt 0.757667 0.391848
vt 0.000000 0.214840
vt 0.990909 0.426500
vn -0.635160 0.680882 -0.364653
vn 0.226715 0.968924 -0.098926
vn 0.046552 0.998601 -0.025086
vn -0.726651 0.666690 -0.165841
vn 0.821678 0.516357 0.241290
vn 0.770187 0.620504 0.147602
vn 0.809861 -0.524230 0.263265
vn 0.770187 -0.620504 0.147602
vn 0.978396 -0.000000 0.206742
vn 0.912058 0.001557 0.410059
vn -0.400288 0.645739 -0.650224
vn 0.202250 0.958222 -0.202250
vn 0.650224 0.645739 0.400288
vn -0.957047 0.001620 -0.289927
vn -0.763425 -0.239952 -0.599671
vn 0.599670 -0.239953 0.763425
vn -0.648759 -0.678274 -0.345044
vn 0.192766 -0.979159 -0.063950
vn 0.171176 -0.970257 -0.171176
vn -0.423010 -0.656626 -0.624423
vn 0.624423 -0.656626 0.423010
vn -0.721270 0.265222 -0.639865
vn 0.639865 0.265222 0.721270
vn -0.812290 0.529954 -0.243586
vn -0.330469 0.884071 0.330469
vn 0.243587 0.529954 0.812289
vn -0.760656 -0.315103 -0.567550
vn 0.567550 -0.315103 0.760656
vn -0.339836 -0.876940 0.339836
vn -0.795020 -0.563298 -0.225031
vn 0.225031 -0.563298 0.795020
vn -0.719917 0.334968 -0.607879
vn 0.607879 0.334969 0.719916
vn -0.995963 -0.004141 -0.089672
vn -0.640064 0.425013 0.640065
vn 0.089675 -0.004141 0.995963
vn -0.755595 -0.457279 -0.469012
vn 0.469013 -0.457279 0.755594
vn -0.609067 -0.508010 0.609067
vn -0.998050 -0.054667 -0.030115
vn 0.030115 -0.054667 0.998050
vn -0.783661 0.469476 -0.406777
vn 0.406777 0.469476 0.783661
vn -0.262058 -0.928790 0.262058
vn -0.705646 0.064253 0.705645
vn 0.067891 -0.995380 -0.067891
vn -0.201441 -0.958563 0.201441
vn -0.467659 -0.750061 0.467658
vn -0.133415 0.982039 0.133414
vn 0.089400 0.991976 -0.089400
vn -0.264658 0.927315 0.264658
vn -0.518441 0.680028 0.518441
vn 0.046552 -0.998601 -0.025086
vn -0.726651 -0.666690 -0.165841
vn -0.980910 -0.000000 -0.194464
vn -0.627207 0.679422 0.380784
vn -0.734602 0.658397 0.163933
vn 0.030030 0.999105 0.029781
vn 0.244791 0.962829 0.114182
vn 0.761522 0.632274 -0.142526
vn 0.827855 0.508161 -0.237550
vn 0.814528 -0.517236 -0.262700
vn 0.907387 0.001795 -0.420294
vn 0.978803 0.000000 -0.204803
vn 0.761522 -0.632274 -0.142526
vn 0.202250 0.958222 0.202250
vn -0.400287 0.645739 0.650224
vn 0.650224 0.645739 -0.400287
vn -0.763425 -0.239953 0.599670
vn -0.960753 0.001932 0.277400
vn 0.599671 -0.239953 -0.763425
vn -0.643732 -0.676648 0.357431
vn -0.423010 -0.656626 0.624423
vn 0.171176 -0.970257 0.171176
vn 0.205885 -0.975782 0.073903
vn 0.624423 -0.656626 -0.423010
vn -0.721270 0.265222 0.639864
vn 0.639864 0.265222 -0.721270
vn -0.330469 0.884070 -0.330469
vn -0.812289 0.529955 0.243586
vn 0.243586 0.529954 -0.812290
vn -0.760656 -0.315103 0.567550
vn 0.567550 -0.315103 -0.760656
vn -0.795020 -0.563298 0.225031
vn -0.339836 -0.876939 -0.339836
vn 0.225031 -0.563298 -0.795020
vn -0.719917 0.334968 0.607879
vn 0.607878 0.334969 -0.719917
vn -0.640064 0.425013 -0.640065
vn -0.995963 -0.004141 0.089673
vn 0.089671 -0.004142 -0.995963
vn -0.755595 -0.457279 0.469012
vn 0.469011 -0.457280 -0.755595
vn -0.998050 -0.054667 0.030115
vn -0.609067 -0.508010 -0.609067
vn 0.030115 -0.054667 -0.998050
vn -0.783661 0.469476 0.406777
vn 0.406776 0.469476 -0.783662
vn -0.262057 -0.928790 -0.262058
vn -0.705645 0.064253 -0.705646
vn 0.067891 -0.995380 0.067891
vn -0.201441 -0.958563 -0.201441
vn -0.467659 -0.750061 -0.467659
vn -0.133414 0.982039 -0.133414
vn 0.089400 0.991976 0.089400
vn -0.264658 0.927314 -0.264658
vn -0.518441 0.680028 -0.518441
vn 0.030030 -0.999105 0.029781
vn -0.734602 -0.658397 0.163933
vn -0.981799 0.000000 0.189924
vn -0.702561 0.711119 0.026800
vn -0.999373 0.000000 0.035409
vn -0.702561 -0.711119 0.026800
vn 0.024752 -0.999690 0.002615
vn 0.737189 -0.675284 -0.023322
vn 0.999450 -0.000000 -0.033164
vn 0.737189 0.675284 -0.023322
vn 0.024752 0.999690 0.002615
s 1
g Hueso
usemtl initialShadingGroup
f 3/123/1 7/125/2 110/110/3 103/103/4
f 7/125/2 4/120/5 109/109/6 110/110/3
f 2/2/7 107/107/8 108/108/9 5/7/10
f 5/7/10 108/108/9 109/109/6 4/120/5
f 7/5/2 3/3/1 9/9/11 10/10/12
f 4/4/5 7/5/2 10/10/12 11/11/13
f 3/3/1 6/145/14 12/12/15 9/9/11
f 5/143/10 4/4/5 11/11/13 13/13/16
f 1/124/17 8/6/18 15/14/19 14/15/20
f 8/6/18 2/121/7 16/16/21 15/14/19
f 6/8/14 1/124/17 14/15/20 17/17/22
f 2/121/7 5/119/10 18/18/23 16/16/21
f 10/10/12 9/9/11 19/19/24 20/20/25
f 11/11/13 10/10/12 20/20/25 21/21/26
f 9/9/11 12/12/15 22/22/27 19/19/24
f 13/13/16 11/11/13 21/21/26 23/23/28
f 14/15/20 15/14/19 25/24/29 24/25/30
f 15/14/19 16/16/21 26/26/31 25/24/29
f 17/17/22 14/15/20 24/25/30 27/27/32
f 16/16/21 18/18/23 28/28/33 26/26/31
f 20/20/25 19/19/24 29/29/34 30/30/35
f 21/21/26 20/20/25 30/30/35 31/31/36
f 19/19/24 22/22/27 32/32/37 29/29/34
f 23/23/28 21/21/26 31/31/36 33/33/38
f 24/25/30 25/24/29 35/34/39 34/35/40
f 25/24/29 26/26/31 36/36/41 35/34/39
f 27/27/32 24/25/30 34/35/40 37/37/42
f 26/26/31 28/28/33 38/38/43 36/36/41
f 42/42/44 43/142/45 5/143/10 13/13/16
f 41/41/46 42/42/44 13/13/16 23/23/28
f 40/40/47 41/41/46 23/23/28 33/33/38
f 39/39/48 40/40/47 33/33/38 31/31/36
f 30/30/35 39/39/48 31/31/36
f 43/43/45 44/44/49 18/18/23 5/119/10
f 44/44/49 45/45/50 28/28/33 18/18/23
f 45/45/50 46/46/51 38/38/43 28/28/33
f 46/46/51 47/47/52 36/36/41 38/38/43
f 35/34/39 36/36/41 47/47/52
f 30/30/35 29/29/34 39/39/48
f 29/29/34 32/32/37 40/40/47 39/39/48
f 32/32/37 22/22/27 41/41/46 40/40/47
f 22/22/27 12/12/15 42/42/44 41/41/46
f 12/12/15 6/145/14 43/142/45 42/42/44
f 6/8/14 17/17/22 44/44/49 43/43/45
f 17/17/22 27/27/32 45/45/50 44/44/49
f 27/27/32 37/37/42 46/46/51 45/45/50
f 37/37/42 34/35/40 47/47/52 46/46/51
f 35/34/39 47/47/52 34/35/40
f 106/106/53 107/107/8 2/2/7 8/126/18
f 105/105/54 106/106/53 8/126/18 1/1/17
f 104/104/55 105/105/54 1/1/17 6/122/14
f 103/103/4 104/137/55 6/144/14 3/123/1
f 58/131/56 118/118/57 111/111/58 62/134/59
f 62/134/59 111/111/58 112/112/60 59/133/61
f 57/59/62 60/60/63 113/113/64 114/114/65
f 60/60/63 59/133/61 112/112/60 113/113/64
f 62/57/59 65/62/66 64/61/67 58/56/56
f 59/58/61 66/63/68 65/62/66 62/57/59
f 58/56/56 64/61/67 67/65/69 61/138/70
f 60/132/63 68/66/71 66/63/68 59/58/61
f 56/127/72 69/70/73 70/69/74 63/129/75
f 63/129/75 70/69/74 71/71/76 57/130/62
f 61/128/70 72/72/77 69/70/73 56/127/72
f 57/130/62 71/71/76 73/73/78 60/141/63
f 65/62/66 75/75/79 74/74/80 64/61/67
f 66/63/68 76/76/81 75/75/79 65/62/66
f 64/61/67 74/74/80 77/77/82 67/65/69
f 68/66/71 78/78/83 76/76/81 66/63/68
f 69/70/73 79/80/84 80/79/85 70/69/74
f 70/69/74 80/79/85 81/81/86 71/71/76
f 72/72/77 82/82/87 79/80/84 69/70/73
f 71/71/76 81/81/86 83/83/88 73/73/78
f 75/75/79 85/85/89 84/84/90 74/74/80
f 76/76/81 86/86/91 85/85/89 75/75/79
f 74/74/80 84/84/90 87/87/92 77/77/82
f 78/78/83 88/88/93 86/86/91 76/76/81
f 79/80/84 89/90/94 90/89/95 80/79/85
f 80/79/85 90/89/95 91/91/96 81/81/86
f 82/82/87 92/92/97 89/90/94 79/80/84
f 81/81/86 91/91/96 93/93/98 83/83/88
f 97/94/99 68/66/71 60/132/63 98/140/100
f 96/96/101 78/78/83 68/66/71 97/94/99
f 95/97/102 88/88/93 78/78/83 96/96/101
f 94/98/103 86/86/91 88/88/93 95/97/102
f 85/85/89 86/86/91 94/98/103
f 98/95/100 60/141/63 73/73/78 99/99/104
f 99/99/104 73/73/78 83/83/88 100/100/105
f 100/100/105 83/83/88 93/93/98 101/101/106
f 101/101/106 93/93/98 91/91/96 102/102/107
f 90/89/95 102/102/107 91/91/96
f 85/85/89 94/98/103 84/84/90
f 84/84/90 94/98/103 95/97/102 87/87/92
f 87/87/92 95/97/102 96/96/101 77/77/82
f 77/77/82 96/96/101 97/94/99 67/65/69
f 67/65/69 97/94/99 98/140/100 61/138/70
f 61/128/70 98/95/100 99/99/104 72/72/77
f 72/72/77 99/99/104 100/100/105 82/82/87
f 82/82/87 100/100/105 101/101/106 92/92/97
f 92/92/97 101/101/106 102/102/107 89/90/94
f 90/89/95 89/90/94 102/102/107
f 114/114/65 115/115/108 63/68/75 57/59/62
f 115/115/108 116/116/109 56/67/72 63/68/75
f 116/116/109 117/135/110 61/64/70 56/67/72
f 117/117/110 118/118/57 58/131/56 61/139/70
f 48/48/111 55/55/112 104/137/55 103/103/4
f 55/136/112 50/50/113 105/105/54 104/104/55
f 50/50/113 53/53/114 106/106/53 105/105/54
f 53/53/114 51/51/115 107/107/8 106/106/53
f 108/108/9 107/107/8 51/51/115 54/54/116
f 109/109/6 108/108/9 54/54/116 49/49/117
f 110/110/3 109/109/6 49/49/117 52/52/118
f 103/103/4 110/110/3 52/52/118 48/48/111
f 112/112/60 111/111/58 52/52/118 49/49/117
f 113/113/64 112/112/60 49/49/117 54/54/116
f 114/114/65 113/113/64 54/54/116 51/51/115
f 53/53/114 115/115/108 114/114/65 51/51/115
f 50/50/113 116/116/109 115/115/108 53/53/114
f 55/136/112 117/135/110 116/116/109 50/50/113
f 48/48/111 118/118/57 117/117/110 55/55/112
f 111/111/58 118/118/57 48/48/111 52/52/118
